<?xml version="1.0" standalone="no"?>
<!DOCTYPE svg PUBLIC "-//W3C//DTD SVG 20010904//EN"
 "http://www.w3.org/TR/2001/REC-SVG-20010904/DTD/svg10.dtd">
<svg version="1.0" xmlns="http://www.w3.org/2000/svg"
 width="100pt" height="100pt" viewBox="0 0 3264 2500"
 preserveAspectRatio="xMidYMid meet">

<g transform="translate(0.000000,3264.000000) scale(0.100000,-0.100000)"
fill="#000000" stroke="none">
<path d="M16220 27280 c-189 -8 -243 -15 -286 -38 -11 -6 -52 -15 -92 -20 -69
-10 -122 -32 -122 -51 0 -4 -30 -11 -67 -15 -44 -4 -90 -17 -128 -36 -33 -16
-72 -31 -86 -34 -14 -3 -37 -16 -51 -29 -14 -13 -50 -29 -81 -36 -31 -7 -63
-20 -69 -30 -7 -10 -28 -23 -47 -29 -19 -7 -40 -21 -48 -32 -8 -11 -33 -25
-56 -31 -23 -7 -54 -25 -69 -41 -15 -15 -34 -28 -42 -28 -8 0 -18 -9 -21 -20
-4 -11 -21 -27 -38 -36 -38 -19 -227 -211 -227 -230 0 -7 -8 -18 -19 -23 -10
-6 -28 -30 -39 -53 -11 -24 -32 -56 -46 -71 -14 -16 -27 -34 -29 -40 -3 -9
-10 -9 -28 0 -30 15 -120 33 -163 33 -18 0 -46 7 -63 15 -52 26 -121 35 -358
45 -356 16 -756 -2 -885 -39 -36 -11 -113 -24 -171 -30 -100 -10 -159 -25
-159 -42 0 -4 -33 -12 -72 -19 -40 -6 -100 -22 -133 -35 -33 -13 -78 -27 -100
-31 -46 -8 -86 -26 -104 -48 -8 -9 -24 -16 -38 -16 -13 0 -54 -16 -90 -35 -36
-19 -74 -35 -84 -35 -10 0 -28 -13 -41 -30 -12 -16 -31 -30 -42 -30 -12 0 -33
-8 -47 -18 -15 -9 -45 -30 -68 -45 -23 -15 -45 -35 -48 -43 -3 -8 -18 -20 -34
-27 -88 -38 -378 -325 -414 -411 -9 -20 -22 -39 -31 -43 -8 -3 -22 -20 -31
-37 -8 -17 -24 -40 -34 -52 -10 -11 -25 -40 -32 -65 -8 -24 -25 -57 -39 -72
-14 -15 -29 -42 -32 -60 -3 -18 -16 -50 -27 -72 -14 -25 -26 -78 -35 -149 -7
-60 -21 -126 -31 -145 -26 -53 -27 -344 0 -384 11 -18 22 -67 30 -144 9 -79
20 -133 35 -163 12 -25 26 -63 32 -86 5 -22 21 -50 34 -61 16 -14 27 -37 32
-68 3 -26 17 -59 30 -75 13 -15 24 -32 24 -38 0 -6 16 -29 35 -52 19 -23 35
-49 35 -57 0 -8 14 -28 30 -45 17 -16 30 -35 30 -42 0 -7 15 -29 33 -49 17
-20 50 -58 72 -83 91 -106 243 -246 302 -279 19 -11 46 -30 59 -42 13 -13 29
-23 37 -23 7 0 24 -11 37 -25 13 -13 44 -32 69 -42 25 -9 57 -25 71 -34 14
-10 44 -23 67 -29 24 -6 53 -21 66 -34 16 -16 44 -26 102 -36 44 -7 107 -22
140 -32 88 -29 345 -29 425 0 30 11 85 25 122 32 50 9 73 19 93 40 15 16 40
32 55 35 16 3 36 15 46 26 17 19 17 20 -4 42 -22 22 -29 22 -330 27 -296 5
-308 6 -330 26 -13 12 -48 26 -78 32 -30 6 -63 20 -75 31 -11 10 -41 25 -67
32 -42 11 -78 34 -150 99 -12 11 -35 26 -51 34 -16 9 -31 24 -34 35 -3 12 -17
25 -31 31 -14 5 -26 16 -26 24 0 8 -13 20 -30 28 -16 7 -30 19 -30 26 0 7 -16
29 -35 49 -19 19 -37 44 -40 53 -3 10 -12 20 -19 23 -8 3 -28 31 -46 61 -17
31 -36 56 -41 56 -5 0 -9 8 -9 19 0 28 -26 84 -49 103 -12 10 -22 36 -27 65
-4 26 -17 68 -30 93 -13 25 -27 68 -30 95 -4 28 -20 74 -35 104 l-29 54 0 293
c0 234 3 295 14 306 22 23 43 70 50 117 4 24 18 62 31 86 14 23 25 51 25 62 0
12 16 40 35 63 19 23 38 54 42 69 3 14 14 35 24 46 10 11 34 37 54 58 19 22
35 42 35 47 0 4 51 58 113 119 155 155 172 171 181 171 5 0 22 11 40 26 94 76
119 94 135 94 10 0 37 13 62 29 24 16 56 32 71 36 15 4 38 18 51 31 16 16 45
28 83 35 33 6 75 21 95 35 19 13 45 24 57 24 29 0 88 25 108 45 9 8 21 15 27
15 60 1 222 31 242 44 15 10 69 23 124 30 56 7 117 22 143 34 42 21 63 23 369
29 178 3 391 3 472 -2 132 -6 148 -9 141 -24 -3 -9 -13 -43 -21 -76 -8 -33
-21 -67 -29 -76 -16 -17 -18 -47 -5 -67 6 -10 18 -11 51 -3 34 7 53 20 80 53
19 23 44 49 54 58 10 8 34 28 52 44 29 23 40 27 69 22 29 -6 36 -3 50 17 9 14
19 44 23 68 5 30 14 47 30 55 12 6 33 22 46 35 13 13 41 36 63 52 21 15 59 43
84 61 26 19 57 37 69 41 13 4 33 17 44 29 12 12 41 30 66 41 25 10 54 26 65
36 11 9 37 20 58 23 20 4 47 17 60 30 14 15 44 28 87 36 36 7 83 21 105 32 22
10 80 25 128 33 53 8 103 23 125 37 33 21 52 22 301 30 149 5 407 5 586 0 303
-9 323 -10 370 -32 28 -13 93 -29 145 -37 52 -7 118 -22 145 -32 28 -11 78
-24 112 -30 38 -6 70 -18 82 -30 11 -11 45 -27 75 -36 30 -9 60 -22 66 -30 6
-8 33 -21 60 -30 26 -9 51 -23 54 -31 3 -8 23 -23 45 -32 21 -10 49 -27 62
-39 70 -63 107 -93 115 -93 11 0 174 -159 231 -226 70 -82 107 -123 134 -152
15 -15 30 -37 34 -50 3 -12 15 -27 26 -33 11 -6 23 -19 27 -29 4 -10 19 -33
34 -52 15 -18 38 -48 50 -67 28 -42 41 -47 63 -24 15 14 17 29 12 95 l-5 78
26 6 c53 12 97 27 122 43 21 14 75 16 435 16 l410 0 39 -27 c21 -16 51 -28 66
-28 33 0 90 -18 110 -36 9 -7 43 -20 76 -27 36 -9 71 -25 88 -40 15 -14 40
-29 56 -32 16 -3 34 -13 42 -22 7 -9 32 -24 56 -34 25 -11 57 -32 73 -47 49
-46 74 -66 101 -81 14 -7 32 -24 39 -37 7 -13 16 -24 21 -24 15 0 279 -270
289 -296 5 -14 18 -28 29 -31 12 -3 25 -22 35 -53 9 -27 22 -54 30 -60 8 -6
21 -34 31 -62 9 -28 25 -59 35 -69 15 -15 22 -49 34 -176 19 -198 19 -297 0
-495 -13 -137 -18 -160 -38 -181 -12 -14 -28 -46 -35 -72 -7 -26 -21 -60 -30
-74 -10 -14 -24 -45 -32 -68 -7 -23 -26 -54 -41 -69 -16 -15 -29 -36 -29 -45
0 -10 -9 -21 -20 -24 -11 -3 -20 -10 -20 -15 0 -12 -117 -130 -129 -130 -5 0
-12 -9 -16 -19 -3 -11 -16 -23 -28 -27 -12 -4 -39 -22 -60 -40 -20 -19 -48
-34 -61 -34 -12 0 -43 -13 -67 -30 -24 -16 -54 -30 -66 -30 -32 0 -75 -18
-101 -43 l-24 -22 -729 2 c-402 1 -734 5 -740 8 -16 10 -10 263 11 435 11 91
24 236 29 322 6 111 13 165 23 180 33 51 51 231 26 256 -7 7 -22 12 -33 12
-28 0 -112 -79 -121 -113 -3 -15 -10 -27 -14 -27 -4 0 -18 -21 -30 -47 -31
-63 -32 -66 -53 -96 -10 -14 -23 -56 -28 -93 -5 -37 -15 -75 -23 -83 -20 -24
-34 -70 -41 -136 -4 -32 -16 -82 -27 -110 -27 -66 -39 -353 -31 -740 5 -264
12 -342 43 -450 6 -22 14 -92 19 -155 6 -84 14 -129 30 -165 17 -37 25 -83 32
-180 9 -135 17 -176 42 -235 8 -19 18 -71 21 -116 4 -45 13 -106 20 -137 13
-55 13 -56 -11 -62 -16 -4 -44 3 -79 20 -29 14 -86 30 -125 34 -40 5 -78 16
-88 25 -29 26 -76 36 -232 45 -89 6 -161 16 -183 25 -62 26 -267 36 -720 36
-436 0 -578 -8 -670 -35 -28 -9 -127 -20 -221 -25 -185 -11 -232 -19 -271 -45
-16 -10 -62 -20 -117 -26 -51 -5 -123 -20 -162 -34 -38 -13 -88 -25 -110 -25
-61 -1 -128 -19 -151 -41 -15 -14 -46 -24 -95 -30 -41 -6 -87 -18 -104 -28
-16 -9 -59 -23 -95 -31 -39 -8 -81 -25 -104 -42 -25 -17 -53 -28 -73 -28 -31
0 -91 -23 -103 -40 -3 -3 -27 -12 -55 -20 -27 -7 -59 -21 -70 -30 -28 -25 -60
-40 -83 -40 -10 0 -39 -13 -63 -30 -24 -16 -53 -30 -65 -30 -11 0 -33 -13 -48
-29 -15 -16 -47 -34 -71 -40 -23 -6 -48 -18 -56 -27 -7 -8 -29 -22 -50 -30
-20 -8 -42 -26 -49 -39 -7 -13 -24 -26 -38 -30 -28 -7 -137 -82 -166 -114 -11
-12 -25 -21 -32 -21 -8 0 -21 -11 -30 -25 -9 -13 -24 -27 -33 -30 -10 -3 -24
-17 -31 -30 -8 -14 -24 -28 -37 -31 -13 -4 -23 -10 -23 -14 0 -5 -18 -25 -40
-46 -22 -21 -40 -44 -40 -51 0 -46 -57 39 -69 105 -5 26 -15 180 -21 342 -7
162 -19 347 -27 410 -12 91 -17 293 -23 975 -8 876 -13 1089 -32 1138 -12 31
-45 37 -55 10 -4 -10 -21 -40 -39 -66 -20 -28 -35 -65 -38 -90 -2 -23 -10 -89
-16 -147 -6 -58 -18 -125 -27 -150 -8 -25 -21 -118 -29 -208 -8 -99 -21 -185
-33 -220 -27 -78 -41 -434 -41 -990 1 -608 19 -965 52 -1008 4 -6 13 -83 18
-170 6 -87 19 -195 29 -239 11 -44 24 -129 31 -190 14 -143 30 -225 48 -252 7
-12 18 -66 23 -120 10 -105 20 -157 37 -189 6 -11 18 -67 26 -124 11 -73 22
-113 37 -134 15 -20 24 -53 30 -107 5 -44 15 -96 23 -117 28 -76 35 -98 45
-157 7 -37 18 -66 30 -76 12 -10 23 -40 31 -90 6 -41 20 -92 30 -114 11 -22
25 -69 34 -104 9 -40 22 -70 35 -80 14 -11 23 -37 32 -86 6 -38 19 -81 29 -95
23 -33 40 -108 33 -143 -9 -45 -34 -52 -200 -52 -142 0 -153 1 -180 23 -15 12
-43 30 -60 39 -18 9 -35 25 -38 35 -4 9 -17 26 -30 36 -13 10 -28 36 -33 58
-43 162 -43 161 -31 226 34 190 22 258 -49 258 -21 0 -42 -4 -47 -8 -6 -5 -29
-14 -52 -21 -27 -7 -44 -19 -48 -32 -4 -11 -17 -25 -30 -31 -13 -6 -29 -24
-36 -40 -6 -16 -20 -35 -30 -42 -22 -15 -34 -45 -43 -109 -4 -27 -17 -65 -29
-85 -19 -33 -22 -52 -22 -162 0 -111 3 -130 23 -168 12 -24 25 -71 29 -104 4
-37 15 -72 29 -93 12 -19 32 -54 43 -79 11 -26 27 -49 35 -52 8 -3 20 -19 26
-35 7 -16 16 -29 21 -29 8 0 45 -32 109 -94 14 -14 39 -30 55 -38 17 -7 36
-20 43 -30 7 -9 39 -25 72 -34 32 -9 67 -25 76 -35 9 -10 42 -23 73 -30 31 -6
72 -19 91 -29 44 -23 243 -40 475 -40 110 -1 165 -4 176 -13 9 -7 22 -29 29
-51 7 -21 23 -47 36 -59 13 -11 24 -26 24 -33 0 -7 18 -36 40 -65 22 -30 40
-59 40 -66 0 -6 10 -19 21 -27 12 -8 30 -28 40 -45 10 -17 25 -31 33 -31 8 0
17 -14 21 -31 4 -16 24 -48 46 -70 21 -22 39 -42 39 -45 0 -3 12 -19 28 -34
15 -15 33 -34 40 -42 54 -58 221 -218 227 -218 4 0 27 -17 51 -37 64 -56 99
-81 128 -93 15 -5 29 -17 32 -25 4 -9 23 -25 43 -36 20 -11 50 -30 68 -43 18
-13 49 -26 70 -29 24 -4 48 -18 66 -37 16 -16 36 -30 45 -30 9 0 25 -8 36 -19
26 -23 79 -41 121 -41 20 0 46 -11 68 -29 23 -18 54 -31 84 -35 26 -3 81 -18
122 -33 l76 -28 430 0 c421 0 525 7 560 35 6 5 42 14 80 20 108 17 112 19 139
44 20 18 41 24 96 29 45 4 90 15 123 31 29 14 64 28 80 31 15 3 36 14 46 24
27 27 50 38 99 46 24 4 52 16 63 28 10 12 34 26 52 32 17 5 36 20 42 32 5 13
22 24 42 28 17 3 51 21 73 40 23 19 46 35 51 35 5 0 15 11 21 25 6 13 20 28
32 31 12 4 40 27 63 53 45 48 63 68 85 89 60 58 78 78 78 89 0 6 14 20 30 30
17 9 30 21 30 26 0 5 18 36 40 69 22 33 40 66 40 74 0 7 9 18 21 24 11 6 29
31 39 55 10 23 23 46 28 49 6 3 18 30 27 59 10 28 28 63 40 77 12 14 25 41 29
61 4 21 15 48 25 60 22 29 41 83 41 117 0 14 12 43 26 64 16 23 31 66 40 110
11 58 32 120 59 176 1 1 36 6 78 12 43 5 96 18 120 29 23 11 76 22 117 26 94
9 141 20 171 43 13 10 47 23 74 30 28 7 61 21 75 30 14 10 44 24 67 31 23 8
52 25 64 37 13 13 27 24 34 24 34 0 191 145 241 223 13 20 28 37 33 37 5 0 12
11 15 24 3 14 19 39 34 56 24 25 33 54 55 158 28 130 32 212 17 292 -5 25 -16
88 -25 140 -12 69 -22 102 -39 120 -13 14 -33 46 -45 73 -13 26 -26 47 -31 47
-4 0 -13 14 -20 30 -7 17 -16 30 -21 30 -4 0 -25 16 -45 36 -52 48 -100 71
-202 97 -38 9 -44 8 -66 -12 -13 -13 -27 -34 -30 -47 -9 -34 10 -98 39 -132
31 -37 51 -196 41 -324 -8 -87 -8 -87 -54 -133 -26 -25 -61 -60 -79 -77 l-32
-32 -178 0 c-114 1 -191 5 -215 13 -39 13 -41 20 -21 81 9 30 25 251 33 475 5
127 15 266 24 310 22 117 22 802 0 930 -9 54 -19 200 -24 365 -11 388 -24 517
-57 580 -7 14 -13 51 -13 82 0 86 -19 208 -41 257 -11 24 -19 66 -19 95 0 101
-21 230 -41 258 -13 18 -24 62 -33 126 -8 54 -21 115 -30 136 -9 21 -21 79
-26 130 -16 131 -28 188 -47 209 -13 14 -19 48 -24 145 -4 70 -12 159 -18 197
-14 90 -14 84 12 94 33 13 384 -6 432 -23 61 -22 97 -27 260 -36 114 -7 164
-14 210 -31 70 -26 258 -37 490 -29 118 4 146 8 182 27 22 12 76 27 119 33 43
6 95 19 115 30 21 10 56 24 78 30 24 6 48 21 57 35 9 14 25 25 36 25 27 0 74
26 82 45 3 9 19 20 34 26 16 5 34 21 40 34 7 14 18 25 26 25 8 0 26 14 39 30
14 17 30 30 36 30 6 0 18 12 28 28 10 15 28 35 40 45 12 10 25 26 28 37 3 10
14 22 24 25 11 3 25 20 32 38 7 18 19 36 26 40 7 4 24 29 37 55 13 26 33 56
45 66 12 11 21 27 21 36 0 9 11 30 24 45 13 15 30 49 37 74 6 25 22 56 35 68
13 13 26 40 29 60 4 21 13 58 21 83 42 128 44 140 44 403 0 254 -7 326 -36
372 -7 11 -16 43 -20 70 -9 66 -21 96 -44 112 -11 8 -20 24 -20 36 0 28 -36
107 -48 107 -5 0 -14 18 -21 40 -6 22 -21 48 -32 59 -11 10 -30 36 -42 58 -46
83 -63 108 -94 138 -18 17 -33 37 -33 43 0 6 -11 18 -23 27 -13 8 -29 26 -35
40 -7 15 -20 25 -32 25 -13 0 -25 10 -32 28 -14 32 -71 89 -99 97 -11 4 -26
20 -34 36 -9 16 -20 29 -24 29 -5 0 -22 14 -38 30 -15 17 -33 30 -38 30 -6 0
-32 18 -59 40 -26 22 -54 40 -62 40 -7 0 -19 9 -27 20 -7 11 -31 27 -53 36
-21 9 -50 26 -64 39 -14 12 -42 28 -62 35 -21 6 -38 15 -38 18 0 10 -78 39
-123 47 -21 3 -40 12 -43 20 -7 17 -45 32 -104 40 -25 4 -76 18 -115 30 -38
13 -117 28 -175 34 -58 6 -120 18 -139 27 -76 38 -486 38 -561 0 -19 -9 -76
-23 -126 -30 -56 -8 -104 -21 -125 -33 -19 -12 -53 -26 -75 -32 -23 -6 -58
-24 -78 -40 -32 -26 -41 -28 -66 -20 -26 10 -60 59 -60 88 0 6 -11 18 -25 27
-14 9 -28 27 -31 40 -3 13 -21 43 -40 66 -19 24 -34 47 -34 52 0 5 -15 24 -32
42 -30 29 -80 86 -96 110 -4 5 -19 17 -34 27 -16 10 -28 24 -28 32 0 8 -13 21
-30 30 -16 9 -30 21 -30 28 0 7 -15 21 -34 30 -19 9 -37 25 -41 36 -3 12 -11
21 -16 21 -5 0 -26 15 -46 33 -21 19 -53 39 -71 45 -19 6 -43 23 -54 37 -11
14 -25 25 -32 25 -7 0 -30 13 -50 29 -20 16 -53 32 -73 36 -21 4 -52 20 -71
36 -18 16 -42 29 -54 29 -12 0 -39 12 -59 26 -23 16 -64 30 -106 37 -41 7 -80
21 -96 34 -29 22 -44 27 -132 38 -27 4 -61 13 -75 20 -14 6 -52 17 -85 23 -81
15 -524 22 -765 12z m1180 -5862 c36 -9 143 -21 237 -27 95 -6 192 -17 215
-25 71 -24 146 -35 300 -46 112 -8 155 -15 180 -29 18 -11 65 -25 105 -32 83
-14 134 -49 159 -107 9 -23 20 -110 29 -232 8 -107 19 -217 24 -245 33 -173
35 -207 35 -810 -1 -591 -1 -613 -22 -690 -12 -44 -26 -134 -32 -200 -7 -66
-14 -123 -16 -127 -7 -11 -72 -10 -111 1 -17 5 -40 18 -51 29 -11 11 -46 26
-79 32 -32 6 -73 21 -92 32 -19 10 -59 24 -90 29 -31 6 -65 19 -76 29 -29 26
-60 40 -88 40 -13 0 -46 12 -72 26 -27 14 -71 29 -99 35 -28 5 -67 21 -87 35
-25 17 -61 29 -111 36 -40 6 -80 16 -88 23 -21 17 -74 32 -141 40 -31 3 -74
16 -95 28 -34 19 -58 22 -185 25 -145 4 -145 4 -211 -27 -36 -17 -81 -31 -100
-31 -21 0 -50 -10 -71 -25 -20 -13 -54 -29 -76 -35 -25 -6 -48 -22 -61 -40
-11 -16 -29 -32 -40 -35 -10 -3 -22 -15 -25 -26 -4 -11 -18 -24 -32 -30 -14
-5 -30 -22 -36 -38 -6 -16 -21 -34 -34 -40 -13 -6 -26 -18 -29 -26 -9 -21 -21
-19 -27 6 -3 11 -19 25 -35 31 -16 6 -33 21 -38 32 -5 12 -28 27 -54 36 -25 8
-61 24 -80 34 -19 11 -58 23 -86 27 -28 4 -77 19 -108 34 -55 26 -64 27 -175
23 -101 -3 -122 -7 -145 -25 -16 -13 -50 -24 -84 -29 -55 -6 -111 -27 -123
-45 -3 -5 -27 -13 -54 -18 -33 -6 -56 -18 -70 -34 -11 -14 -35 -28 -53 -32
-18 -4 -45 -17 -60 -30 -16 -13 -40 -27 -55 -30 -15 -4 -35 -17 -45 -30 -10
-12 -35 -28 -57 -35 -22 -8 -50 -24 -62 -37 -12 -13 -28 -23 -35 -23 -7 0 -35
-18 -62 -40 -26 -22 -54 -40 -61 -40 -8 0 -27 -11 -43 -25 -17 -14 -34 -25
-40 -25 -5 0 -27 -16 -48 -35 -22 -19 -51 -37 -65 -40 -15 -3 -35 -15 -45 -27
-11 -11 -36 -27 -56 -35 -20 -8 -44 -26 -53 -39 -8 -13 -24 -24 -34 -24 -10 0
-33 -11 -52 -25 -19 -13 -49 -31 -68 -40 -19 -8 -41 -24 -48 -35 -17 -24 -41
-25 -70 -5 -15 11 -24 33 -33 82 -6 37 -20 84 -30 103 -10 19 -24 58 -30 85
-6 28 -22 61 -34 75 -18 19 -26 46 -35 114 -8 57 -19 100 -32 117 -10 15 -19
34 -19 43 0 39 -23 115 -40 134 -20 21 -40 115 -40 186 0 22 -11 63 -25 92
-14 29 -28 81 -32 114 -4 42 -14 74 -31 98 -22 31 -27 53 -33 143 -7 114 -11
131 -40 196 -11 23 -23 82 -28 132 -6 52 -19 109 -31 136 -17 36 -23 75 -27
160 l-6 112 32 19 c17 10 31 24 31 31 0 7 15 19 34 27 19 8 38 21 42 29 5 8
26 22 47 31 22 9 48 27 58 40 11 14 32 27 48 31 16 3 35 13 42 21 7 9 34 26
60 40 26 13 52 30 56 37 4 8 31 22 60 31 28 9 57 23 63 31 6 8 28 19 48 26 20
6 52 25 70 40 22 20 44 29 66 29 19 0 49 11 70 25 20 14 56 29 79 35 25 5 50
19 62 34 14 17 34 27 65 31 66 9 130 26 130 36 0 9 47 24 102 34 21 3 51 17
67 30 19 17 41 25 67 25 60 1 172 25 191 42 10 8 57 21 105 28 55 7 97 19 111
31 19 14 59 21 193 33 109 9 192 22 232 35 45 15 111 24 225 31 165 10 290 26
317 41 8 5 206 7 440 6 348 -2 437 -6 490 -19z m-406 -3247 c60 -7 131 -21
159 -32 28 -11 83 -26 123 -34 43 -8 82 -22 94 -33 12 -11 49 -25 83 -32 34
-7 85 -23 112 -36 28 -13 70 -26 95 -30 25 -4 54 -14 65 -24 26 -23 75 -37
155 -45 36 -3 83 -15 105 -25 51 -25 154 -40 275 -40 52 0 101 -4 109 -9 22
-14 -4 -171 -29 -171 -12 0 -28 -46 -35 -102 -5 -42 -14 -61 -35 -81 -15 -15
-31 -41 -34 -59 -3 -18 -17 -43 -31 -56 -13 -13 -27 -39 -31 -57 -3 -19 -21
-50 -40 -69 -19 -19 -34 -41 -34 -48 0 -7 -9 -19 -20 -26 -11 -7 -20 -18 -20
-25 0 -31 -215 -247 -293 -296 -21 -12 -37 -27 -37 -32 0 -5 -18 -18 -40 -29
-23 -12 -43 -27 -46 -34 -3 -8 -21 -17 -40 -21 -20 -3 -49 -19 -66 -36 -17
-16 -39 -29 -48 -29 -9 0 -39 -11 -66 -25 -27 -14 -75 -32 -108 -40 -32 -7
-74 -25 -95 -39 -23 -16 -57 -27 -96 -31 -33 -4 -106 -18 -161 -31 -100 -24
-400 -49 -584 -49 -158 0 -387 24 -462 49 -40 13 -102 29 -138 36 -41 7 -69
18 -77 30 -7 10 -37 26 -67 34 -29 9 -59 22 -65 30 -6 7 -33 21 -59 31 -26 10
-57 28 -69 40 -12 13 -33 27 -45 31 -13 4 -30 15 -39 25 -9 11 -21 19 -26 19
-6 0 -30 17 -54 39 -24 21 -53 41 -64 44 -11 4 -25 17 -30 29 -6 13 -20 27
-32 33 -12 5 -27 20 -34 32 -7 13 -23 26 -35 29 -12 3 -27 18 -34 34 -6 15
-22 32 -35 38 -13 6 -26 19 -29 30 -4 10 -18 25 -31 32 -14 7 -25 19 -25 26 0
8 -29 46 -64 86 -34 40 -66 83 -70 95 -4 12 -21 32 -37 44 -24 17 -30 27 -27
52 3 31 4 32 83 45 49 8 88 20 100 32 12 11 51 23 99 31 44 8 94 23 110 34 17
11 50 27 74 35 24 7 47 21 52 30 5 10 31 23 57 30 26 7 57 21 68 31 11 9 42
27 68 40 27 12 51 28 54 35 3 8 23 19 45 25 22 6 51 21 65 35 13 13 37 31 54
39 16 9 32 22 35 30 3 7 25 18 50 24 24 6 54 22 66 36 11 13 34 27 50 30 15 4
41 17 56 29 15 12 47 28 72 35 25 7 55 22 67 33 12 11 46 26 75 33 29 7 79 23
111 34 42 16 100 24 214 31 86 6 159 13 162 16 9 8 251 -2 375 -15z"/>
<path d="M17379 20760 c-30 -4 -66 -14 -80 -23 -13 -9 -48 -19 -77 -23 -30 -4
-69 -17 -89 -31 -19 -13 -49 -27 -67 -30 -59 -11 -231 -160 -240 -209 -4 -16
-10 -46 -15 -67 -7 -30 -5 -42 9 -60 16 -19 27 -22 84 -20 43 2 83 11 118 27
130 59 705 57 812 -4 20 -11 43 -20 51 -20 7 0 27 -11 43 -25 59 -50 149 -68
190 -39 18 13 22 25 22 73 0 50 -5 65 -42 122 -23 35 -46 66 -51 68 -5 2 -23
18 -41 36 -17 18 -49 44 -71 57 -22 14 -46 33 -54 42 -7 9 -21 16 -30 16 -10
0 -37 13 -62 29 -25 15 -67 31 -95 35 -27 4 -65 15 -84 25 -42 21 -153 32
-231 21z"/>
<path d="M15270 20573 c-14 -3 -37 -14 -51 -24 -15 -10 -41 -19 -58 -19 -51 0
-135 -22 -151 -39 -8 -10 -31 -23 -50 -30 -59 -22 -80 -34 -80 -45 0 -6 -19
-17 -42 -24 -24 -8 -57 -28 -73 -45 -17 -18 -54 -52 -83 -77 -29 -24 -52 -49
-52 -56 0 -6 -13 -28 -29 -48 -60 -75 -63 -222 -6 -276 23 -21 26 -22 42 -7
10 8 30 18 44 22 14 3 33 19 43 36 9 16 23 29 31 29 8 0 29 13 47 28 18 16 48
34 66 42 18 7 38 21 45 30 7 10 28 20 47 24 19 4 62 20 95 36 33 15 89 33 125
40 36 6 81 20 100 30 46 24 324 40 500 29 102 -6 129 -5 148 7 45 29 23 93
-63 178 -79 79 -140 116 -191 116 -18 0 -34 5 -36 10 -8 26 -85 39 -213 38
-71 0 -141 -3 -155 -5z"/>
<path d="M17097 17780 c-7 -11 -29 -26 -49 -34 -19 -8 -40 -21 -46 -29 -7 -7
-31 -20 -54 -27 -24 -7 -53 -24 -65 -36 -13 -13 -40 -26 -60 -29 -21 -3 -72
-13 -113 -21 -184 -38 -189 -38 -253 -27 -99 19 -248 43 -298 49 -29 3 -58 14
-74 29 -29 24 -101 41 -135 30 -11 -4 -25 -15 -30 -25 -15 -27 7 -117 31 -130
10 -6 26 -24 34 -40 8 -16 24 -32 35 -35 11 -4 31 -17 44 -30 13 -13 40 -27
60 -30 20 -4 42 -15 49 -25 16 -23 44 -36 92 -44 22 -4 50 -14 62 -22 13 -8
68 -19 124 -26 113 -13 272 0 312 27 12 7 41 17 64 21 27 4 53 18 77 40 20 19
44 34 54 34 24 0 64 32 144 114 48 50 69 80 77 111 6 23 17 48 26 55 29 24 15
92 -21 109 -37 17 -71 13 -87 -9z"/>
<path d="M16565 26450 c-127 -8 -181 -17 -212 -37 -12 -8 -52 -21 -90 -29 -39
-8 -74 -21 -83 -32 -8 -10 -41 -28 -72 -41 -32 -13 -58 -27 -58 -31 0 -4 -18
-15 -40 -25 -53 -24 -70 -45 -73 -91 -2 -34 1 -39 22 -42 13 -2 27 1 31 8 4 6
49 17 101 24 62 9 108 22 133 37 40 23 42 23 380 24 338 0 341 0 372 -22 18
-13 61 -29 96 -36 36 -8 78 -23 94 -34 16 -12 53 -27 82 -33 34 -8 63 -23 82
-41 15 -16 35 -29 44 -29 8 0 21 -8 28 -18 7 -9 27 -26 43 -36 40 -25 223
-214 231 -238 3 -10 9 -18 14 -18 5 0 21 -22 36 -50 15 -27 30 -50 35 -50 9 0
17 -21 35 -90 8 -30 23 -63 32 -73 14 -16 17 -42 17 -172 0 -130 -3 -156 -17
-172 -10 -10 -23 -41 -30 -69 -11 -40 -25 -62 -76 -112 -34 -33 -62 -65 -62
-71 0 -5 -17 -15 -37 -21 -21 -7 -47 -20 -58 -30 -11 -9 -42 -23 -70 -29 -27
-7 -60 -22 -73 -34 -27 -26 -110 -35 -318 -36 -110 -1 -135 -4 -154 -19 -29
-23 -19 -44 35 -70 25 -12 45 -26 45 -30 0 -34 195 -56 372 -42 68 5 126 10
130 10 3 0 19 11 35 24 18 15 53 29 93 36 36 6 74 20 85 30 11 10 35 25 53 34
17 9 32 21 32 26 0 5 18 20 40 33 51 30 136 128 145 165 3 16 17 39 30 50 13
12 29 40 35 64 6 24 15 50 20 58 28 43 34 76 38 224 4 169 -5 246 -38 311 -11
22 -20 52 -20 68 0 18 -10 38 -29 55 -17 16 -31 42 -35 65 -4 23 -18 48 -37
64 -16 14 -29 32 -29 39 0 8 -13 20 -29 29 -16 8 -32 23 -35 33 -9 29 -81 102
-99 102 -10 0 -22 11 -27 25 -5 13 -23 31 -40 40 -16 8 -30 19 -30 23 0 5 -19
19 -42 32 -24 12 -54 33 -68 45 -14 13 -42 28 -62 35 -21 6 -38 15 -38 20 0 9
-42 26 -88 35 -18 4 -45 17 -60 30 -17 14 -54 28 -92 36 -36 6 -84 20 -106 30
-77 33 -349 52 -569 39z"/>
<path d="M12507 25466 c-35 -15 -125 -112 -133 -142 -3 -12 -16 -27 -29 -34
-13 -7 -26 -24 -30 -39 -3 -14 -17 -42 -30 -61 -13 -19 -29 -62 -36 -95 -7
-33 -23 -75 -35 -93 -29 -43 -39 -158 -30 -366 6 -151 14 -188 41 -211 7 -5
18 -39 24 -74 13 -67 29 -111 42 -111 4 0 10 -14 14 -30 4 -17 22 -48 41 -71
19 -22 34 -45 34 -50 0 -9 39 -56 75 -91 85 -81 119 -108 134 -108 9 0 27 -11
39 -25 12 -13 34 -27 49 -31 15 -4 37 -14 48 -24 39 -34 84 -40 291 -40 199 0
203 0 231 24 24 20 26 26 14 40 -8 9 -39 23 -70 32 -31 9 -60 22 -66 28 -17
21 -52 36 -85 36 -36 0 -168 67 -217 110 -19 17 -38 30 -43 30 -11 0 -24 14
-75 80 -22 29 -52 65 -67 82 -15 16 -33 47 -39 68 -7 22 -20 48 -29 58 -10 10
-21 34 -25 53 -8 38 -31 87 -50 105 -18 18 -28 253 -19 446 6 146 9 167 30
198 13 19 29 67 35 105 7 39 16 72 19 75 28 21 40 106 18 128 -15 15 -34 14
-71 -2z"/>
<path d="M20143 25323 c-17 -6 -16 -38 1 -76 8 -18 20 -50 27 -72 6 -22 22
-47 34 -57 13 -10 25 -34 29 -55 3 -21 18 -63 33 -93 26 -54 27 -58 26 -260 0
-201 -1 -206 -26 -255 -14 -27 -29 -67 -33 -88 -4 -23 -15 -44 -28 -52 -12 -8
-28 -30 -35 -50 -19 -55 -179 -205 -217 -205 -8 0 -26 -11 -40 -25 -14 -14
-45 -30 -70 -35 -25 -6 -67 -21 -92 -34 -34 -17 -77 -27 -152 -34 -58 -6 -125
-18 -150 -27 -76 -28 -112 -35 -190 -35 -82 0 -135 -11 -165 -35 -20 -15 -20
-15 3 -34 12 -11 45 -24 73 -30 28 -6 70 -22 93 -36 24 -14 58 -25 79 -25 20
0 83 -9 139 -20 122 -24 207 -25 265 -5 24 8 69 17 100 21 62 6 113 22 113 34
0 10 56 30 85 30 12 0 37 11 56 25 19 13 48 31 65 39 17 7 38 23 45 34 8 10
23 22 35 26 29 9 79 60 94 96 7 17 19 30 27 30 8 0 20 16 28 34 8 19 22 39 30
44 16 8 44 73 45 103 0 9 9 24 19 33 19 17 41 85 41 126 0 12 9 42 21 66 11
25 23 76 26 112 7 83 -13 247 -32 276 -8 11 -15 35 -15 53 0 39 -15 81 -39
108 -10 11 -22 37 -25 59 -4 21 -18 49 -31 62 -12 12 -25 27 -26 33 -7 17
-132 151 -142 151 -5 0 -31 11 -59 25 -27 14 -50 25 -51 24 -1 0 -8 -3 -14 -6z"/>
<path d="M15448 24439 c-54 -5 -103 -16 -128 -29 -21 -11 -52 -20 -68 -20 -53
0 -141 -22 -161 -41 -11 -11 -34 -19 -51 -19 -62 0 -170 -23 -188 -40 -11 -10
-48 -25 -83 -34 -35 -9 -73 -25 -84 -35 -11 -9 -49 -23 -85 -30 -43 -8 -72
-20 -87 -35 -12 -13 -39 -27 -60 -31 -21 -3 -51 -17 -68 -29 -16 -13 -47 -28
-67 -35 -21 -7 -44 -21 -51 -31 -7 -11 -26 -24 -42 -30 -34 -13 -157 -118
-203 -174 -41 -49 -44 -101 -8 -135 16 -15 26 -19 31 -11 4 6 31 22 61 35 30
13 54 28 54 34 0 5 14 12 30 15 17 3 44 9 60 12 17 3 43 16 58 28 15 12 52 28
83 35 31 6 65 21 74 31 10 11 30 20 44 20 48 0 142 27 164 47 13 12 51 24 94
31 40 7 91 20 115 31 24 10 83 24 132 30 54 7 106 21 135 36 31 16 71 26 126
30 44 4 114 15 154 26 41 11 122 24 180 30 191 18 269 29 313 46 66 25 399 25
445 0 46 -24 113 -32 136 -15 15 11 17 21 12 50 -10 51 -41 76 -111 89 -32 7
-68 20 -80 31 -11 10 -47 23 -80 29 -32 6 -76 19 -96 30 -21 11 -71 24 -110
29 -88 11 -469 11 -590 -1z"/>
<path d="M15810 22780 c-189 -8 -245 -16 -315 -40 -27 -10 -88 -23 -134 -29
-60 -8 -93 -18 -115 -34 -22 -17 -57 -27 -118 -36 -55 -8 -97 -20 -112 -32
-13 -10 -33 -19 -45 -19 -43 0 -119 -22 -139 -40 -20 -18 -63 -32 -144 -45
-21 -3 -44 -12 -51 -20 -8 -7 -37 -20 -66 -29 -31 -9 -61 -26 -73 -41 -12 -16
-29 -25 -47 -25 -15 0 -48 -11 -72 -25 -24 -14 -59 -32 -76 -40 -18 -8 -40
-26 -49 -40 -9 -14 -25 -25 -35 -25 -26 0 -89 -58 -106 -97 -7 -18 -18 -33
-23 -33 -5 0 -17 -11 -25 -24 -13 -19 -13 -28 -4 -49 6 -14 18 -28 26 -31 22
-9 123 19 177 48 27 14 56 26 64 26 8 0 31 12 50 26 23 18 58 31 107 39 40 7
86 22 102 33 15 11 49 23 75 27 29 4 60 16 78 31 25 21 45 27 132 35 104 10
152 23 176 46 7 7 30 13 50 13 49 0 140 25 161 44 11 10 59 18 151 25 128 11
192 23 215 42 6 4 72 14 146 22 84 9 149 21 170 31 24 13 76 20 179 27 196 13
337 28 369 41 14 6 71 16 125 24 76 10 104 18 120 34 l21 21 -28 24 c-15 13
-44 27 -65 30 -20 4 -55 15 -78 25 -22 10 -76 23 -120 29 -111 14 -458 21
-654 11z"/>
<path d="M19463 22029 c-7 -7 3 -24 36 -58 26 -27 57 -53 69 -60 12 -6 22 -18
22 -27 0 -8 16 -24 35 -35 20 -12 40 -30 46 -40 5 -11 14 -19 20 -19 5 0 24
-15 42 -32 65 -65 188 -173 207 -182 11 -5 20 -12 20 -16 0 -11 108 -120 119
-120 4 0 13 -11 19 -25 7 -14 23 -30 37 -37 14 -6 25 -17 25 -24 0 -7 10 -21
23 -31 20 -15 122 -124 217 -230 15 -17 31 -40 34 -51 4 -10 17 -25 31 -32 13
-7 29 -26 36 -41 6 -16 18 -29 26 -29 8 0 20 -13 26 -29 6 -16 21 -35 33 -42
13 -6 28 -24 34 -40 7 -15 21 -36 31 -45 11 -10 27 -33 35 -51 9 -18 24 -35
34 -38 9 -3 25 -23 35 -45 10 -22 22 -40 26 -40 4 0 15 -16 24 -35 9 -19 27
-44 40 -57 21 -22 31 -35 80 -117 11 -18 33 -47 48 -64 15 -18 30 -44 33 -59
4 -15 16 -37 28 -50 11 -12 29 -41 39 -63 10 -22 26 -49 36 -60 10 -11 23 -39
31 -62 7 -24 24 -50 37 -58 12 -9 23 -24 23 -34 0 -10 11 -35 26 -56 14 -21
32 -58 41 -84 8 -25 23 -55 34 -66 10 -12 23 -34 29 -51 15 -44 42 -57 83 -40
17 7 41 23 52 36 11 12 32 28 47 36 58 30 63 155 8 206 -17 15 -30 35 -30 46
0 11 -12 37 -26 58 -15 21 -31 52 -37 69 -6 16 -23 45 -39 63 -15 18 -28 41
-28 50 0 10 -13 32 -30 50 -16 18 -30 41 -30 51 0 10 -16 35 -35 55 -19 21
-35 42 -35 48 0 6 -13 26 -30 45 -16 18 -30 40 -30 47 0 7 -12 23 -26 37 -14
13 -35 41 -45 62 -11 20 -24 37 -30 37 -5 0 -15 14 -21 30 -5 17 -19 35 -29
41 -10 5 -27 26 -38 47 -10 20 -46 65 -80 99 -34 35 -61 67 -61 71 0 5 -13 21
-30 35 -16 15 -30 31 -30 36 0 5 -13 14 -30 21 -18 7 -30 20 -30 31 0 24 -79
109 -102 109 -10 0 -18 7 -18 15 0 19 -80 101 -108 109 -12 4 -22 13 -22 20 0
7 -9 21 -20 32 -11 10 -32 31 -47 47 -14 15 -33 27 -40 27 -8 0 -22 13 -31 30
-9 16 -20 30 -24 30 -4 0 -23 15 -42 33 -84 79 -119 107 -130 107 -7 0 -25 13
-40 29 -16 16 -38 32 -51 35 -12 3 -25 15 -28 26 -3 11 -21 27 -41 35 -20 9
-36 20 -36 25 0 5 -21 21 -47 34 -27 13 -57 33 -67 45 -11 12 -27 21 -36 21
-9 0 -29 14 -45 30 -16 17 -33 30 -38 30 -5 0 -27 13 -50 29 -23 16 -57 32
-75 36 -18 4 -37 15 -42 26 -12 21 -59 26 -77 8z"/>
<path d="M23907 21092 c-15 -10 -36 -28 -47 -39 -10 -12 -27 -27 -37 -35 -44
-33 -103 -109 -113 -149 -6 -23 -21 -55 -33 -71 -22 -30 -35 -100 -36 -205 -1
-64 -12 -79 -31 -43 -6 11 -17 20 -25 20 -8 0 -26 17 -40 38 -14 20 -40 49
-58 64 -17 16 -50 44 -71 63 -22 19 -56 40 -78 45 -21 6 -38 16 -38 23 0 15
-152 97 -179 97 -10 0 -35 -13 -56 -30 -21 -16 -41 -30 -46 -30 -4 0 -11 -9
-14 -20 -4 -11 -17 -31 -29 -43 -13 -12 -29 -44 -37 -72 -7 -27 -21 -57 -31
-65 -45 -37 -45 -369 0 -429 10 -15 24 -57 31 -95 7 -37 23 -89 36 -115 13
-25 27 -59 31 -76 4 -16 20 -45 36 -63 15 -18 28 -41 28 -51 0 -10 14 -35 30
-56 17 -21 33 -50 37 -64 3 -14 12 -33 20 -42 12 -15 10 -17 -18 -23 -17 -3
-55 -6 -83 -6 -62 -1 -162 -21 -196 -41 -20 -11 -106 -15 -435 -19 -449 -5
-422 -2 -492 -68 -20 -18 -33 -40 -33 -55 0 -13 -9 -44 -19 -68 -11 -24 -25
-80 -31 -124 -9 -58 -18 -87 -35 -105 -12 -14 -27 -39 -33 -56 -21 -65 -102
-155 -249 -279 -19 -16 -49 -45 -66 -62 -17 -18 -37 -33 -46 -33 -18 0 -101
-83 -101 -101 0 -6 7 -36 16 -66 l16 -55 -36 -70 c-28 -51 -40 -90 -48 -151
-10 -81 -14 -95 -44 -150 -9 -15 -18 -44 -21 -65 -3 -20 -16 -53 -29 -72 -27
-41 -43 -105 -44 -171 0 -28 -6 -51 -14 -59 -21 -17 -43 -94 -50 -171 -3 -36
-13 -86 -23 -110 -27 -65 -26 -378 1 -428 9 -18 21 -67 26 -110 8 -81 16 -108
37 -129 7 -7 15 -29 18 -50 15 -97 27 -141 45 -157 11 -10 26 -41 35 -70 8
-29 21 -58 29 -65 8 -6 22 -36 31 -65 8 -30 24 -60 34 -67 11 -8 24 -33 31
-57 6 -24 22 -60 35 -80 13 -20 27 -49 31 -66 4 -16 20 -45 36 -63 15 -18 28
-41 28 -51 0 -10 11 -34 24 -54 13 -19 31 -59 40 -88 9 -30 27 -65 41 -78 14
-13 25 -32 25 -42 0 -10 14 -48 30 -82 17 -35 30 -75 30 -89 0 -13 13 -44 29
-69 18 -27 33 -71 41 -114 7 -38 21 -88 30 -110 25 -56 64 -358 57 -442 -12
-156 -40 -339 -57 -373 -10 -19 -24 -64 -31 -99 -7 -39 -21 -73 -36 -89 -12
-14 -28 -43 -34 -66 -6 -22 -22 -53 -35 -69 -13 -16 -24 -34 -24 -41 0 -7 -15
-28 -33 -47 -19 -19 -36 -41 -39 -49 -12 -35 -22 9 -29 123 -5 90 -13 135 -27
168 -11 24 -26 68 -33 98 -8 30 -21 59 -32 65 -9 6 -27 30 -38 54 -12 23 -24
42 -29 42 -4 0 -19 18 -34 39 -18 26 -44 46 -76 60 -26 11 -50 27 -53 35 -3 8
-29 22 -58 30 -29 9 -61 23 -71 32 -47 43 -320 41 -385 -3 -15 -10 -50 -24
-78 -31 -27 -7 -57 -20 -65 -30 -8 -10 -29 -23 -45 -30 -35 -14 -115 -88 -115
-106 0 -6 -10 -16 -22 -21 -13 -6 -27 -23 -33 -40 -5 -16 -17 -36 -26 -42 -11
-8 -22 -42 -30 -85 -7 -41 -23 -88 -36 -107 -33 -49 -33 -179 0 -242 13 -24
26 -67 30 -95 5 -46 20 -91 45 -134 5 -8 15 -27 23 -42 38 -73 150 -186 217
-219 23 -11 42 -24 42 -29 0 -9 44 -26 90 -34 19 -4 50 -17 70 -31 30 -21 51
-25 148 -31 62 -4 115 -10 117 -14 2 -4 -7 -13 -20 -20 -14 -7 -27 -21 -30
-30 -3 -9 -22 -22 -42 -29 -20 -8 -47 -24 -60 -37 -13 -13 -40 -31 -59 -39
-18 -8 -34 -19 -34 -24 0 -9 -37 -22 -102 -36 -14 -3 -39 -15 -55 -28 -15 -13
-55 -28 -89 -35 -34 -7 -90 -22 -124 -33 -37 -12 -112 -24 -179 -29 -64 -5
-183 -17 -266 -25 -82 -9 -170 -14 -195 -11 -88 12 -257 27 -396 36 -88 5
-165 16 -205 28 -35 11 -100 25 -144 32 -54 8 -92 20 -116 36 -21 14 -63 29
-99 35 -36 6 -78 20 -98 34 -20 14 -45 25 -55 25 -22 0 -54 16 -80 41 -11 9
-41 23 -68 29 -29 7 -54 20 -60 31 -5 10 -16 19 -24 19 -8 0 -32 15 -52 34
-21 18 -50 36 -64 39 -14 4 -40 20 -57 37 -18 16 -38 30 -46 30 -7 0 -20 10
-28 23 -9 12 -28 29 -44 37 -16 8 -51 36 -79 62 -27 26 -68 57 -91 67 -22 11
-49 31 -58 46 -12 18 -24 25 -39 23 -35 -5 -33 -47 3 -92 16 -21 30 -42 30
-47 0 -4 9 -11 20 -14 11 -4 27 -20 36 -37 20 -38 85 -108 101 -108 7 0 18
-12 25 -27 7 -16 22 -32 34 -37 11 -5 25 -19 30 -30 5 -12 19 -22 32 -24 12
-2 29 -14 38 -27 12 -19 160 -115 177 -115 3 0 17 -11 30 -24 14 -14 42 -28
63 -32 22 -3 59 -19 83 -35 25 -16 54 -29 66 -29 12 0 34 -11 50 -24 29 -25
87 -46 127 -46 14 0 37 -9 52 -21 14 -11 61 -27 103 -36 43 -8 85 -21 93 -28
26 -22 82 -34 190 -41 77 -5 122 -14 170 -33 l65 -26 430 0 430 0 57 27 c42
19 81 28 149 34 72 5 102 13 145 35 29 16 63 29 74 29 18 0 56 17 110 49 8 5
34 15 58 22 24 7 49 20 55 30 7 9 29 24 49 32 20 8 39 25 43 36 4 13 15 21 27
21 23 0 228 196 228 217 0 7 13 27 28 45 16 18 32 46 36 61 8 34 75 100 131
129 22 11 52 32 66 47 15 14 33 32 41 39 12 12 52 56 103 114 46 52 105 137
105 150 0 9 13 32 30 53 16 20 34 51 38 69 5 17 20 48 34 68 16 23 28 58 32
93 4 36 15 69 30 88 15 21 27 58 35 109 7 43 20 92 28 110 26 50 35 218 31
548 -3 287 -5 308 -25 350 -12 25 -27 72 -33 105 -6 33 -22 76 -35 95 -13 19
-27 55 -30 80 -10 75 -15 89 -34 107 -10 10 -26 43 -35 73 -10 30 -24 59 -31
65 -8 5 -20 33 -27 60 -6 28 -22 64 -35 81 -12 18 -30 50 -39 73 -9 22 -20 41
-24 41 -9 0 -26 43 -35 87 -4 18 -19 48 -35 68 -16 20 -31 49 -35 64 -3 16
-15 37 -25 46 -11 10 -24 41 -31 70 -6 29 -22 65 -35 81 -21 24 -44 81 -44
110 0 6 -9 22 -19 36 -11 13 -25 53 -31 88 -7 36 -23 81 -37 101 -63 95 -63
661 1 771 15 26 29 74 36 123 7 44 21 104 31 133 10 29 19 61 19 71 0 10 6 24
14 31 12 9 19 7 37 -13 11 -14 41 -31 65 -38 25 -8 46 -21 49 -31 3 -9 19 -23
35 -30 17 -7 30 -18 30 -25 0 -7 13 -27 28 -45 16 -18 34 -53 41 -78 7 -25 23
-56 36 -70 22 -23 25 -38 38 -240 10 -142 20 -227 30 -250 9 -19 21 -56 27
-82 8 -29 19 -50 30 -53 9 -3 23 -23 30 -45 7 -21 28 -55 46 -74 19 -20 34
-40 34 -44 0 -5 16 -16 35 -25 19 -9 35 -21 35 -27 0 -11 72 -50 95 -50 8 0
15 -4 15 -10 0 -22 55 -42 157 -57 91 -12 122 -13 198 -2 109 15 127 21 173
59 20 17 40 30 45 30 14 0 88 83 107 121 10 19 25 41 34 48 8 7 22 37 31 67 8
30 20 54 25 54 13 0 28 56 41 155 6 52 19 103 30 121 14 23 22 72 34 210 8 98
18 204 21 234 3 30 -4 140 -15 243 -16 146 -25 194 -40 215 -10 15 -24 54 -31
87 -6 33 -19 71 -29 85 -47 66 -47 83 0 133 10 11 22 49 29 91 6 39 16 79 22
89 13 26 4 32 -29 19 -15 -6 -43 -14 -61 -17 -21 -4 -58 -31 -106 -76 -99 -93
-120 -109 -162 -120 -19 -6 -45 -20 -57 -32 -22 -22 -26 -22 -368 -22 -322 0
-348 1 -367 18 -11 10 -47 27 -79 37 l-58 18 35 15 c20 8 44 25 55 37 11 12
31 26 43 31 13 5 26 18 29 29 3 11 14 22 24 25 11 4 31 24 45 46 14 22 31 42
39 45 7 3 19 25 26 50 7 24 21 46 30 49 9 3 25 22 35 43 9 20 25 47 34 59 10
13 24 52 31 88 15 76 7 74 145 43 88 -19 130 -22 379 -22 261 -1 283 0 310 18
31 21 129 45 182 46 26 0 36 -6 48 -30 8 -16 23 -34 33 -39 9 -5 23 -30 31
-55 7 -26 23 -53 34 -61 21 -14 21 -22 19 -197 -2 -101 2 -237 8 -303 9 -100
14 -123 32 -143 13 -13 28 -49 35 -84 7 -34 21 -70 32 -82 10 -12 27 -39 38
-61 23 -50 54 -58 78 -21 14 22 16 41 10 118 -6 88 -32 266 -41 279 -2 3 3 48
12 100 8 52 21 153 29 224 9 84 21 144 34 170 11 24 24 83 31 145 6 58 16 113
22 124 6 13 6 22 -1 29 -6 6 -11 25 -11 41 -1 39 -26 110 -40 114 -6 2 -22 22
-36 43 -13 21 -29 39 -34 39 -12 0 -240 227 -240 239 0 5 -8 12 -18 15 -10 3
-23 20 -29 37 -7 17 -21 33 -32 36 -12 3 -21 12 -21 20 0 20 -30 77 -46 86 -7
4 -18 27 -24 50 -15 59 -31 97 -40 97 -9 0 -22 57 -46 196 -13 80 -14 114 -6
160 18 102 42 142 57 95 3 -10 20 -25 38 -32 18 -6 46 -24 62 -39 17 -15 40
-31 53 -35 13 -4 27 -17 32 -31 5 -13 20 -26 34 -30 13 -3 26 -14 29 -25 3
-11 19 -24 36 -30 17 -6 31 -15 31 -20 0 -6 44 -54 98 -107 54 -53 101 -105
105 -115 4 -11 16 -21 27 -24 12 -3 22 -17 26 -32 13 -65 25 -99 43 -120 11
-13 23 -37 26 -54 4 -18 20 -53 36 -78 16 -25 29 -55 29 -66 0 -34 21 -83 40
-93 9 -5 20 -22 23 -37 3 -15 17 -45 31 -66 14 -20 33 -62 41 -92 9 -30 23
-61 31 -69 13 -13 12 -19 -5 -47 -11 -18 -25 -64 -32 -103 -7 -39 -20 -79 -30
-89 -16 -18 -39 -81 -39 -109 0 -8 -8 -23 -19 -32 -24 -21 -39 -101 -46 -244
-4 -73 -12 -125 -23 -150 -25 -54 -25 -360 0 -417 11 -25 20 -87 26 -165 8
-127 25 -185 52 -185 24 0 41 50 50 149 5 51 14 106 20 122 18 46 40 183 41
254 0 75 18 183 48 289 12 41 21 89 21 107 0 20 10 44 25 63 14 16 33 56 41
88 8 32 23 67 33 78 10 11 24 43 31 70 8 28 22 58 31 69 28 29 41 107 42 239
1 104 -2 129 -21 170 -11 26 -25 47 -31 47 -5 0 -15 17 -22 38 -7 20 -22 51
-34 67 -13 17 -28 47 -35 68 -6 20 -20 42 -30 47 -10 6 -22 20 -25 32 -9 34
-38 88 -47 88 -4 0 -13 18 -19 40 -7 22 -25 54 -41 72 -15 17 -28 39 -28 48 0
9 -12 39 -26 66 -14 27 -32 84 -40 126 -8 43 -23 92 -34 110 -28 46 -28 169 0
215 11 18 23 54 27 80 10 54 32 65 44 20 4 -15 16 -35 27 -45 11 -9 25 -33 32
-52 13 -34 24 -49 90 -117 16 -17 30 -34 30 -38 0 -8 150 -154 204 -200 20
-16 49 -42 64 -57 15 -15 43 -34 62 -42 19 -8 46 -26 59 -40 14 -14 32 -26 42
-26 10 0 24 -8 31 -19 15 -20 69 -51 92 -51 8 0 21 -9 29 -20 7 -11 29 -26 48
-34 20 -9 41 -28 53 -50 18 -34 18 -36 1 -73 -12 -25 -23 -88 -32 -188 -7 -82
-17 -161 -23 -175 -21 -57 -32 -158 -40 -380 -6 -168 -12 -248 -23 -280 -20
-57 -26 -95 -36 -257 -7 -113 -12 -139 -34 -182 -18 -33 -30 -79 -37 -137 -7
-56 -19 -101 -32 -122 -18 -29 -20 -45 -16 -125 6 -132 51 -221 101 -201 19 7
26 29 42 137 10 70 18 93 38 113 14 14 28 43 32 64 4 21 17 51 30 66 12 14 25
44 28 64 3 27 16 50 41 75 20 19 36 41 36 47 0 5 14 26 30 45 17 18 30 40 30
49 0 8 11 19 25 24 14 5 30 20 36 33 6 13 27 29 47 36 20 8 46 21 57 31 11 10
36 25 55 33 57 24 99 75 126 152 23 66 25 80 21 230 -2 92 -11 190 -19 230 -9
39 -22 144 -28 236 -15 197 -4 333 30 376 11 14 20 31 20 38 0 7 21 33 46 57
26 23 57 53 69 65 13 12 40 30 61 39 22 10 42 19 45 21 12 7 29 -49 29 -95 1
-26 8 -90 16 -142 8 -52 21 -159 29 -237 12 -113 20 -153 39 -190 15 -29 28
-74 31 -113 4 -36 17 -87 30 -115 12 -27 28 -78 35 -112 7 -35 16 -63 20 -63
11 0 50 -82 50 -105 0 -10 11 -32 24 -49 13 -17 27 -46 30 -63 4 -18 18 -48
32 -68 29 -43 30 -74 5 -106 -10 -13 -25 -49 -34 -79 -10 -32 -25 -60 -37 -68
-11 -7 -20 -21 -20 -31 0 -11 -13 -29 -28 -39 -15 -11 -34 -33 -42 -48 -8 -15
-43 -56 -77 -90 -35 -35 -63 -67 -63 -73 0 -6 -9 -15 -21 -21 -11 -7 -27 -27
-35 -45 -8 -19 -23 -39 -34 -45 -11 -6 -23 -22 -26 -36 -3 -13 -15 -30 -25
-37 -10 -8 -26 -31 -36 -53 -10 -21 -30 -51 -44 -65 -14 -14 -29 -43 -33 -64
-4 -22 -18 -50 -31 -62 -12 -13 -25 -36 -28 -52 -3 -15 -17 -41 -30 -57 -13
-16 -29 -54 -35 -87 -6 -32 -18 -65 -27 -73 -8 -8 -22 -41 -31 -72 -9 -31 -22
-64 -29 -72 -20 -22 -33 -63 -44 -130 -5 -32 -19 -72 -31 -87 -11 -16 -26 -56
-33 -90 -7 -34 -20 -70 -28 -80 -16 -18 -39 -114 -39 -164 0 -15 -11 -41 -25
-58 -16 -18 -29 -51 -35 -83 -5 -29 -21 -75 -35 -102 -14 -28 -25 -66 -25 -88
0 -41 -11 -70 -40 -103 -9 -11 -23 -41 -30 -67 -7 -27 -16 -48 -20 -48 -12 0
-40 -77 -40 -109 0 -20 -9 -36 -25 -49 -14 -11 -32 -37 -41 -59 -9 -21 -24
-47 -34 -58 -9 -11 -20 -32 -24 -47 -3 -15 -22 -43 -41 -64 -19 -20 -35 -41
-35 -47 0 -5 -13 -25 -30 -44 -16 -18 -30 -40 -30 -48 0 -8 -5 -15 -10 -15 -6
0 -45 -34 -86 -75 -41 -41 -79 -75 -84 -75 -5 0 -12 -9 -15 -20 -3 -11 -12
-20 -20 -20 -7 0 -32 -15 -54 -34 -23 -19 -51 -38 -64 -42 -12 -3 -34 -19 -49
-35 -15 -17 -37 -29 -51 -29 -13 0 -41 -11 -61 -25 -21 -14 -60 -30 -87 -36
-28 -6 -58 -20 -69 -31 -13 -14 -48 -25 -120 -38 -55 -10 -119 -26 -143 -34
-23 -9 -94 -20 -157 -25 -118 -8 -195 -30 -188 -53 15 -45 256 -70 498 -52
162 12 180 16 219 46 14 10 41 18 65 18 58 1 115 15 145 38 14 10 43 24 64 31
20 7 42 21 47 31 6 11 29 24 51 30 23 6 51 22 63 34 11 13 36 31 54 40 17 9
32 22 32 29 0 7 13 18 30 25 16 8 45 30 62 49 18 20 57 60 85 90 29 30 61 68
70 84 10 16 25 32 35 35 9 3 20 14 23 25 4 11 19 35 34 52 16 18 34 49 40 69
7 20 22 43 35 52 13 8 27 27 30 42 4 16 15 34 25 41 10 7 24 34 31 60 7 26 23
58 36 71 13 12 28 40 34 62 6 22 22 56 35 75 12 19 26 57 30 84 5 35 15 59 36
80 16 17 29 41 29 53 0 13 7 34 15 48 25 44 36 74 46 125 5 27 20 65 33 85 13
19 29 60 36 90 7 30 20 69 29 85 10 17 23 59 31 94 8 37 22 72 34 85 14 13 27
47 35 91 8 39 22 81 31 95 10 14 23 51 29 82 7 31 19 62 28 70 20 16 43 70 43
101 0 13 11 38 24 56 13 17 29 53 36 79 6 25 20 52 30 59 11 8 25 33 31 56 6
23 24 57 40 75 16 18 29 36 29 41 0 4 12 21 26 36 15 16 32 40 38 54 10 25 26
44 87 109 14 15 32 42 40 60 7 17 17 32 21 32 4 0 20 19 35 43 15 23 35 49 44
57 9 8 22 33 29 55 7 22 23 52 37 66 21 23 27 44 38 144 12 99 12 133 0 223
-12 90 -18 110 -38 127 -13 12 -29 43 -37 70 -7 28 -22 60 -32 71 -11 12 -26
51 -34 87 -8 35 -23 73 -34 84 -16 17 -20 48 -30 199 -7 109 -19 210 -31 259
-13 51 -24 144 -30 255 -7 130 -15 190 -30 232 -11 32 -24 92 -29 134 -7 65
-12 81 -36 102 -36 34 -130 42 -203 18 -28 -9 -62 -16 -76 -16 -44 0 -115 -22
-128 -39 -7 -9 -29 -25 -49 -34 -21 -10 -43 -26 -50 -36 -7 -10 -23 -23 -35
-30 -13 -6 -30 -25 -38 -41 -8 -16 -26 -41 -40 -54 -14 -14 -28 -39 -31 -56
-7 -34 -24 -41 -24 -9 0 30 -28 74 -59 92 -14 8 -38 26 -54 39 -15 13 -48 30
-74 36 -25 7 -57 21 -71 32 -13 11 -31 20 -38 20 -19 0 -52 20 -81 47 -13 13
-35 26 -48 29 -13 3 -31 17 -40 30 -8 13 -22 24 -30 24 -8 0 -20 10 -26 22 -6
12 -36 46 -66 76 -29 30 -60 67 -68 82 -7 14 -21 33 -30 40 -9 8 -25 30 -36
49 -24 43 -60 97 -88 131 -12 14 -44 54 -72 89 -53 67 -128 140 -166 159 -30
17 -54 15 -86 -6z m1045 -1876 c5 -44 15 -105 22 -134 24 -89 -14 -186 -69
-179 -15 1 -20 9 -19 32 3 73 26 371 31 385 9 29 25 -20 35 -104z m-2125 -967
c29 -215 30 -426 3 -625 -11 -82 -20 -170 -20 -195 0 -35 -5 -51 -24 -68 -14
-13 -30 -45 -37 -74 -7 -31 -29 -73 -56 -108 -38 -51 -49 -59 -94 -68 -104
-22 -300 -4 -328 30 -9 11 -27 25 -40 32 -14 7 -29 26 -34 42 -5 17 -18 39
-28 50 -11 13 -25 56 -34 105 -9 47 -25 98 -36 113 -19 26 -21 50 -28 260 l-8
232 -32 61 c-17 34 -31 66 -31 71 0 5 -13 19 -30 31 -16 13 -30 29 -30 37 0 8
-11 22 -25 31 -13 9 -27 24 -30 34 -3 10 -19 23 -36 30 -20 9 -27 16 -20 23 6
6 64 5 171 -3 131 -11 194 -11 333 -1 173 13 222 22 244 48 6 8 38 18 71 23
61 8 95 22 120 47 8 8 19 12 26 10 6 -2 20 -73 33 -168z m-1873 -3758 c26 -5
51 -13 55 -18 3 -6 20 -17 37 -26 44 -22 89 -77 140 -171 16 -29 64 -235 64
-275 0 -17 -9 -66 -19 -109 -11 -42 -22 -89 -25 -104 -4 -16 -13 -28 -21 -28
-8 0 -31 -14 -51 -32 -36 -31 -38 -32 -155 -36 -65 -3 -147 -1 -182 2 -54 6
-66 11 -75 31 -6 13 -21 26 -33 30 -27 9 -109 90 -109 108 0 8 -11 24 -25 37
-14 13 -25 33 -25 44 0 12 -7 46 -16 76 -24 85 -32 137 -21 155 5 9 17 45 27
80 11 40 30 77 49 97 17 18 31 41 31 51 0 9 7 17 15 17 8 0 38 14 67 32 74 44
162 57 272 39z"/>
<path d="M12725 20833 c-40 -45 -85 -106 -85 -114 0 -5 -10 -14 -23 -20 -21
-9 -42 -37 -102 -135 -12 -18 -33 -42 -48 -54 -15 -12 -27 -29 -27 -38 -1 -9
-14 -33 -30 -52 -17 -19 -30 -43 -30 -53 0 -10 -13 -30 -28 -45 -34 -32 -98
-137 -107 -175 -4 -15 -13 -27 -20 -27 -12 0 -45 -57 -45 -77 0 -5 -10 -23
-23 -41 -13 -17 -30 -50 -37 -73 -8 -23 -25 -53 -37 -65 -12 -12 -25 -41 -29
-63 -4 -22 -13 -46 -21 -53 -17 -14 -43 -73 -43 -99 0 -10 -11 -30 -25 -45
-14 -15 -28 -39 -31 -53 -14 -70 -28 -112 -38 -119 -15 -10 -36 -58 -36 -85 0
-12 -13 -41 -29 -64 -18 -28 -30 -61 -35 -98 -3 -31 -17 -77 -30 -103 -13 -26
-26 -69 -30 -97 -4 -27 -18 -70 -30 -95 -23 -43 -46 -171 -46 -250 0 -24 -7
-43 -19 -54 -14 -13 -22 -42 -31 -119 -6 -56 -22 -138 -35 -182 -21 -69 -26
-113 -35 -320 -13 -309 -13 -628 1 -946 9 -227 13 -262 35 -325 13 -39 24 -87
24 -108 0 -69 22 -181 41 -208 11 -14 19 -42 19 -62 0 -71 23 -192 46 -236 12
-25 26 -67 30 -95 3 -27 15 -67 26 -88 14 -29 48 -163 48 -191 0 -2 11 -15 25
-30 15 -16 25 -39 25 -56 0 -34 18 -78 41 -101 9 -9 20 -38 24 -65 8 -55 19
-81 46 -107 11 -10 19 -26 19 -36 0 -26 26 -85 43 -99 8 -7 17 -30 21 -52 4
-25 16 -49 31 -62 14 -12 30 -40 36 -62 6 -23 21 -57 34 -76 13 -19 27 -47 30
-63 4 -15 17 -35 29 -45 12 -9 28 -33 36 -52 7 -19 24 -47 36 -62 12 -15 27
-43 34 -62 6 -19 22 -42 36 -50 13 -9 24 -25 24 -35 0 -10 9 -26 21 -37 12
-10 30 -38 41 -61 11 -23 28 -45 38 -48 10 -3 24 -22 30 -41 6 -19 20 -39 31
-44 10 -6 19 -17 19 -25 0 -7 20 -37 45 -66 25 -29 45 -57 45 -62 0 -5 11 -18
24 -28 14 -11 28 -28 31 -39 3 -10 15 -22 26 -25 12 -4 27 -21 35 -38 7 -18
25 -43 39 -56 14 -13 25 -27 25 -32 0 -5 11 -11 24 -15 14 -3 27 -15 30 -28 3
-13 22 -38 42 -57 20 -19 48 -45 61 -59 175 -182 234 -240 242 -240 8 0 75
-61 177 -160 16 -17 34 -30 38 -30 4 0 22 -14 39 -30 73 -69 84 -78 116 -94
19 -10 45 -29 58 -42 13 -13 35 -27 48 -30 13 -3 27 -14 30 -24 3 -10 22 -25
43 -34 43 -19 134 -82 144 -101 4 -7 22 -18 40 -26 18 -7 53 -26 77 -41 25
-15 54 -28 65 -28 11 0 29 -9 40 -19 18 -17 24 -18 39 -6 17 12 17 14 -2 27
-12 8 -26 28 -31 45 -6 17 -23 36 -38 44 -15 8 -52 39 -83 69 -31 30 -82 75
-113 100 -31 25 -62 51 -69 58 -51 55 -187 182 -195 182 -4 0 -12 10 -17 23
-6 12 -19 26 -31 31 -11 5 -26 22 -33 38 -7 15 -19 28 -27 28 -7 0 -20 13 -29
30 -8 16 -21 33 -29 37 -8 4 -53 53 -100 108 -89 105 -142 165 -164 187 -7 7
-18 19 -25 26 -7 8 -27 30 -44 50 -18 19 -33 40 -33 46 0 6 -13 24 -30 39 -16
16 -30 35 -30 42 0 7 -13 24 -29 38 -16 13 -36 38 -45 56 -18 33 -28 47 -77
101 -17 18 -38 49 -49 70 -11 21 -26 44 -33 52 -8 8 -22 29 -32 47 -9 18 -25
35 -35 38 -11 3 -21 18 -25 39 -3 19 -19 50 -35 68 -17 19 -30 40 -30 48 0 8
-11 25 -25 38 -13 12 -32 45 -41 72 -9 27 -25 54 -35 61 -10 6 -19 17 -19 24
0 19 -39 81 -55 87 -8 3 -15 14 -15 25 0 29 -29 99 -44 104 -7 3 -18 23 -25
45 -8 22 -24 52 -37 67 -13 15 -26 47 -30 71 -3 25 -16 53 -29 66 -13 13 -26
40 -30 61 -4 21 -18 54 -32 73 -13 20 -29 59 -35 88 -6 28 -22 65 -35 83 -13
18 -28 56 -33 85 -6 29 -19 65 -30 80 -11 15 -24 56 -29 94 -7 43 -19 79 -35
103 -14 20 -26 45 -26 55 0 24 -28 134 -45 171 -7 17 -18 75 -24 130 -7 60
-20 116 -32 140 -13 26 -25 84 -35 169 -8 71 -22 165 -30 210 -44 226 -44
1055 0 1305 9 51 23 151 31 220 10 90 20 138 34 162 14 24 24 68 32 149 7 66
20 132 30 155 10 22 24 74 30 115 7 41 18 82 26 90 19 24 39 89 47 153 3 33
15 70 26 85 11 15 25 54 30 86 5 33 20 75 34 95 13 20 29 66 36 103 7 37 20
77 30 88 10 12 24 44 30 73 7 29 22 63 35 77 12 14 27 49 33 78 7 29 18 60 26
68 8 7 22 35 32 61 9 27 25 57 35 68 10 11 24 45 30 75 7 30 23 66 35 80 13
14 30 41 38 61 8 19 21 41 29 47 8 7 20 34 27 60 8 26 26 63 42 82 15 19 28
42 28 52 0 9 11 29 25 43 13 15 27 45 30 69 5 32 13 45 36 58 23 14 29 24 29
51 0 47 -36 63 -65 30z"/>
<path d="M10282 19383 c-5 -10 -13 -37 -17 -60 -3 -23 -14 -48 -22 -55 -28
-23 -45 -80 -53 -173 -5 -72 -12 -97 -32 -126 -17 -26 -28 -62 -36 -119 -7
-46 -16 -88 -21 -94 -20 -26 -31 -91 -41 -242 -7 -131 -13 -168 -29 -195 -26
-44 -38 -153 -47 -434 -5 -121 -9 -245 -11 -275 -13 -241 -14 -439 -4 -559 7
-75 16 -254 22 -397 10 -289 14 -318 40 -355 15 -21 20 -60 29 -210 9 -145 15
-193 31 -225 10 -22 24 -78 30 -125 7 -51 20 -100 34 -124 17 -29 26 -69 33
-143 7 -71 17 -114 31 -137 11 -19 23 -51 26 -72 10 -63 27 -123 35 -123 13 0
29 -52 39 -124 6 -41 18 -81 30 -97 11 -15 23 -39 26 -53 3 -14 7 -37 10 -50
3 -14 16 -37 28 -53 16 -18 28 -52 35 -97 6 -40 19 -77 30 -90 10 -11 25 -43
32 -71 7 -27 21 -59 30 -70 10 -11 24 -46 31 -78 7 -32 22 -69 35 -82 12 -13
28 -41 34 -62 7 -21 21 -49 30 -63 9 -14 23 -43 30 -65 7 -22 26 -58 41 -79
16 -22 29 -47 29 -56 0 -10 13 -37 30 -61 16 -24 30 -51 30 -59 0 -8 13 -30
29 -49 16 -18 34 -51 40 -72 6 -21 20 -44 30 -51 10 -7 23 -29 30 -49 6 -21
25 -51 41 -68 17 -17 30 -37 30 -45 0 -7 14 -30 30 -51 17 -21 33 -49 36 -62
4 -13 15 -28 26 -34 11 -6 28 -29 39 -52 25 -55 60 -105 98 -142 17 -17 31
-38 31 -47 0 -9 8 -23 18 -30 11 -7 25 -24 32 -38 7 -13 23 -32 35 -42 12 -9
30 -35 40 -57 10 -23 22 -41 27 -41 5 0 18 -16 29 -35 11 -19 29 -37 39 -40
11 -3 22 -15 25 -26 4 -11 19 -33 33 -49 15 -16 45 -52 67 -81 22 -28 68 -81
103 -116 34 -36 62 -68 62 -71 0 -4 28 -34 63 -67 35 -33 66 -68 70 -78 3 -10
17 -21 29 -26 13 -5 30 -21 37 -35 8 -14 21 -26 28 -26 8 0 22 -13 31 -30 9
-16 21 -30 25 -30 4 0 38 -30 76 -67 89 -89 185 -173 225 -198 17 -11 43 -32
58 -47 15 -16 33 -28 41 -28 8 0 19 -11 25 -25 6 -14 18 -25 26 -25 9 0 31
-15 49 -32 66 -63 112 -98 144 -109 18 -5 35 -18 38 -29 3 -10 19 -23 35 -30
16 -6 31 -18 34 -25 5 -14 62 -45 82 -45 8 0 21 -11 30 -25 9 -13 26 -27 37
-31 12 -3 33 -16 47 -29 32 -29 64 -45 89 -45 11 0 22 -9 26 -21 4 -11 23 -28
43 -36 20 -8 50 -26 67 -39 18 -13 41 -24 52 -24 10 0 32 -13 47 -29 15 -15
45 -34 66 -41 21 -7 41 -19 44 -26 3 -7 31 -21 63 -30 32 -10 67 -28 78 -40
11 -12 38 -28 60 -34 22 -7 49 -20 60 -30 11 -10 44 -23 73 -30 29 -7 64 -23
77 -36 13 -13 36 -26 52 -29 15 -4 55 -20 87 -36 32 -16 71 -29 85 -29 15 0
45 -13 67 -29 21 -15 58 -31 82 -35 24 -4 66 -18 93 -32 27 -13 73 -29 102
-34 29 -6 57 -16 62 -23 17 -23 48 -34 115 -41 36 -4 88 -18 115 -31 28 -13
79 -29 114 -35 35 -6 76 -20 90 -30 26 -19 144 -40 223 -40 24 0 51 -8 68 -20
18 -13 65 -25 131 -36 57 -8 123 -24 147 -35 35 -16 86 -22 280 -33 168 -10
254 -19 297 -32 55 -17 111 -18 720 -19 651 0 661 0 730 22 57 18 113 24 294
32 188 9 231 14 265 30 23 11 85 27 138 34 60 9 110 23 131 36 21 13 52 21 78
22 74 0 197 24 216 41 10 9 53 23 96 31 43 8 86 22 95 30 9 9 54 22 100 30 51
9 95 23 113 36 16 12 43 24 61 27 46 8 89 25 116 45 12 9 45 20 72 24 29 4 67
19 92 36 24 16 52 29 64 29 11 0 43 12 70 26 27 14 70 32 96 40 26 8 52 23 57
32 5 10 33 24 63 31 29 7 62 21 73 31 11 10 40 24 64 31 23 7 49 22 57 34 8
13 35 27 65 35 28 8 56 21 62 31 7 9 29 22 50 28 21 7 52 26 68 42 16 16 37
29 46 29 9 0 30 11 47 23 17 13 48 32 68 41 21 10 40 26 43 37 4 10 14 19 23
19 18 0 76 33 99 56 8 8 21 14 28 14 8 0 24 13 36 29 12 16 31 32 43 35 11 3
50 28 86 56 36 28 82 62 103 75 20 14 37 30 37 35 0 5 16 16 35 24 19 8 38 22
41 31 4 9 21 23 40 33 18 9 59 42 91 72 32 31 70 64 86 73 15 10 27 24 27 32
0 8 6 15 14 15 8 0 25 12 38 28 12 15 35 35 50 44 14 10 29 27 33 38 3 11 13
20 21 20 8 0 23 13 32 30 9 16 21 30 25 30 13 0 177 166 177 179 0 6 14 17 30
26 17 9 30 20 30 25 0 5 15 25 33 44 61 65 138 153 154 177 9 13 31 41 50 62
18 20 33 42 33 48 0 6 11 20 25 31 14 11 25 26 25 33 0 8 14 23 30 35 17 12
30 27 30 33 0 7 14 28 30 47 17 19 35 49 41 67 5 18 19 35 30 38 10 4 27 21
36 38 8 18 26 44 39 59 12 15 25 41 29 58 4 17 16 35 27 41 11 6 26 25 34 42
8 18 26 47 39 66 14 19 25 42 25 52 0 10 14 27 30 39 17 12 30 29 30 39 0 10
12 36 26 57 15 21 31 54 36 72 5 19 23 47 39 64 16 17 29 38 29 48 0 9 14 37
30 63 17 26 30 55 30 63 0 19 17 52 42 78 10 11 24 38 30 61 6 22 20 52 30 66
10 15 24 52 32 83 9 32 24 65 35 74 11 9 26 40 33 67 7 28 20 62 30 76 10 15
24 53 31 85 8 33 25 76 39 96 16 24 27 57 31 94 4 35 14 69 27 86 11 15 25 54
31 86 5 31 14 67 19 80 8 19 5 27 -15 47 -13 14 -33 25 -44 25 -26 0 -61 -38
-61 -65 0 -12 -11 -37 -25 -55 -14 -19 -28 -52 -32 -73 -3 -21 -16 -51 -28
-65 -30 -36 -45 -67 -45 -90 0 -10 -9 -27 -20 -37 -11 -10 -27 -41 -35 -68 -8
-28 -24 -59 -35 -69 -10 -10 -24 -37 -31 -60 -6 -23 -22 -55 -35 -71 -13 -16
-24 -34 -24 -40 0 -7 -13 -28 -29 -47 -15 -19 -34 -53 -41 -75 -7 -22 -23 -50
-36 -63 -12 -13 -25 -36 -29 -51 -3 -16 -17 -38 -30 -49 -14 -12 -30 -42 -36
-66 -7 -28 -18 -48 -29 -51 -10 -3 -25 -20 -33 -38 -9 -18 -25 -40 -36 -49
-11 -9 -25 -35 -31 -57 -6 -25 -18 -42 -30 -46 -11 -4 -23 -17 -26 -30 -3 -12
-19 -35 -35 -51 -16 -15 -34 -44 -39 -64 -6 -24 -19 -41 -35 -48 -14 -6 -25
-16 -25 -21 0 -5 -13 -25 -30 -43 -16 -18 -30 -38 -30 -45 0 -6 -13 -21 -30
-33 -16 -12 -30 -27 -30 -33 0 -7 -14 -28 -31 -47 -17 -19 -37 -50 -45 -67 -8
-18 -21 -33 -29 -33 -9 0 -23 -13 -33 -28 -17 -29 -28 -41 -97 -117 -22 -24
-69 -76 -105 -115 -81 -89 -357 -364 -451 -450 -40 -36 -86 -80 -105 -97 -18
-18 -37 -33 -43 -33 -6 0 -26 -15 -44 -32 -19 -18 -67 -57 -106 -87 -39 -30
-71 -58 -71 -62 0 -4 -13 -12 -29 -17 -16 -6 -37 -22 -46 -36 -10 -14 -23 -26
-29 -26 -7 0 -25 -13 -41 -30 -15 -16 -41 -32 -56 -35 -16 -4 -37 -17 -47 -30
-11 -13 -32 -30 -48 -37 -16 -7 -39 -23 -51 -35 -12 -11 -36 -24 -53 -28 -16
-4 -37 -16 -45 -28 -15 -22 -75 -60 -151 -97 -23 -11 -49 -31 -58 -45 -10 -15
-26 -25 -40 -25 -13 0 -43 -13 -67 -30 -24 -16 -51 -30 -59 -30 -8 0 -28 -13
-45 -29 -16 -15 -51 -34 -77 -41 -26 -7 -62 -23 -80 -36 -17 -13 -38 -24 -45
-24 -7 0 -25 -13 -41 -28 -21 -21 -47 -32 -93 -41 -35 -7 -73 -21 -84 -31 -11
-10 -39 -24 -61 -30 -23 -7 -54 -23 -68 -35 -17 -14 -47 -26 -79 -30 -53 -7
-82 -19 -104 -41 -7 -7 -36 -17 -64 -23 -28 -6 -64 -22 -79 -35 -20 -17 -46
-25 -95 -30 -45 -4 -85 -16 -122 -36 -33 -18 -71 -30 -93 -30 -20 0 -58 -11
-84 -25 -32 -17 -75 -28 -139 -35 -58 -7 -110 -19 -142 -34 -31 -15 -86 -28
-143 -35 -51 -6 -116 -20 -145 -30 -33 -12 -109 -23 -207 -31 -110 -8 -176
-18 -225 -35 -120 -40 -690 -56 -1230 -34 -172 6 -285 15 -310 24 -22 7 -53
16 -70 20 -53 12 -258 35 -310 35 -29 0 -55 3 -59 7 -15 15 -86 33 -176 44
-59 7 -114 20 -145 35 -32 15 -84 27 -142 34 -59 6 -109 18 -140 34 -26 13
-70 26 -97 30 -27 3 -64 16 -84 28 -19 12 -70 27 -116 34 -44 7 -82 18 -84 24
-5 15 -57 40 -85 40 -13 0 -49 13 -79 29 -30 16 -75 32 -101 36 -25 4 -61 18
-79 31 -18 14 -51 29 -73 35 -22 6 -49 19 -60 29 -11 10 -49 24 -85 31 -41 9
-70 20 -79 32 -7 11 -28 25 -47 33 -18 8 -49 25 -68 38 -20 13 -54 27 -75 31
-24 4 -49 18 -67 36 -15 16 -35 29 -44 29 -9 0 -34 13 -56 30 -21 16 -48 30
-59 30 -10 0 -33 13 -50 28 -16 16 -46 35 -65 42 -19 8 -41 22 -48 32 -7 10
-20 18 -28 18 -20 0 -55 21 -76 47 -10 12 -34 27 -52 33 -19 6 -37 17 -40 25
-2 7 -21 21 -41 31 -19 9 -49 30 -66 45 -17 16 -39 29 -50 29 -10 0 -23 9 -29
21 -7 11 -24 25 -40 31 -16 5 -36 20 -45 34 -8 13 -30 30 -48 38 -30 12 -53
30 -127 102 -14 13 -30 24 -37 24 -6 0 -21 14 -33 30 -12 17 -26 30 -32 30 -7
0 -26 15 -43 33 -41 41 -81 76 -125 109 -27 20 -184 166 -222 205 -8 9 -111
113 -126 128 -20 20 -120 130 -143 159 -13 15 -39 44 -56 64 -18 20 -33 41
-33 47 0 6 -13 19 -30 28 -16 10 -30 22 -30 27 0 10 -34 51 -80 99 -14 14 -35
42 -47 62 -23 41 -46 70 -86 112 -15 16 -35 43 -44 61 -9 17 -24 37 -34 44
-11 7 -19 19 -19 26 0 7 -14 29 -30 47 -17 19 -39 50 -50 70 -11 20 -26 39
-35 42 -8 4 -15 15 -15 25 0 10 -13 31 -29 46 -15 15 -34 45 -41 67 -8 22 -21
46 -30 52 -9 7 -22 28 -30 46 -8 19 -26 49 -41 65 -14 17 -29 44 -33 60 -4 17
-21 45 -37 63 -16 19 -29 42 -29 53 0 11 -11 27 -24 35 -16 11 -27 30 -31 56
-4 22 -18 53 -32 69 -13 16 -29 46 -35 66 -5 20 -20 46 -33 58 -13 12 -26 39
-30 65 -4 26 -17 54 -31 68 -13 13 -29 44 -35 68 -6 25 -22 56 -35 70 -13 14
-24 36 -24 49 0 34 -20 89 -39 106 -9 8 -22 35 -30 60 -7 25 -21 59 -31 77
-10 18 -24 60 -31 94 -7 36 -22 73 -36 90 -13 15 -27 45 -29 66 -7 45 -24 94
-40 110 -6 6 -17 47 -24 90 -8 51 -21 91 -38 116 -17 26 -28 60 -34 103 -4 35
-16 85 -27 110 -12 25 -25 82 -31 127 -7 55 -17 92 -34 116 -18 28 -26 61 -36
146 -7 61 -20 133 -30 160 -10 28 -24 100 -30 160 -8 74 -20 127 -35 160 -20
43 -25 77 -35 255 -7 113 -20 246 -30 295 -31 152 -44 633 -31 1109 7 220 14
403 16 407 17 27 37 192 42 352 5 161 9 190 24 208 31 36 41 81 27 124 -15 44
-32 55 -46 28z"/>
<path d="M18886 17209 c-18 -14 -24 -25 -18 -33 5 -6 12 -23 16 -38 6 -27 32
-61 94 -122 17 -18 32 -38 32 -44 0 -7 12 -31 27 -55 15 -23 34 -55 41 -71 7
-16 21 -35 30 -42 11 -7 24 -38 32 -71 7 -32 22 -76 31 -98 26 -56 39 -158 39
-307 0 -142 -15 -271 -35 -302 -8 -12 -20 -51 -29 -87 -10 -46 -24 -76 -45
-98 -17 -18 -31 -41 -31 -50 0 -10 -13 -27 -30 -39 -16 -13 -30 -29 -30 -36 0
-8 -14 -19 -30 -26 -17 -7 -34 -19 -39 -27 -7 -13 -16 -11 -59 11 -28 14 -56
26 -61 26 -6 0 -21 11 -35 25 -14 14 -42 27 -66 31 -23 4 -47 12 -53 19 -23
22 -58 36 -114 45 -31 5 -63 16 -72 24 -31 28 -141 38 -387 34 -234 -3 -240
-4 -294 -29 -30 -15 -82 -30 -115 -33 -35 -4 -76 -17 -101 -31 -54 -32 -66
-31 -103 3 -16 15 -45 41 -64 58 -26 24 -47 33 -91 38 -95 12 -176 -11 -176
-50 0 -7 11 -25 24 -41 13 -15 28 -44 35 -65 7 -20 23 -48 36 -63 14 -14 25
-36 25 -49 0 -12 12 -56 27 -97 26 -71 27 -81 28 -279 0 -176 -3 -212 -19
-253 -10 -27 -24 -80 -30 -120 l-12 -71 -165 -17 c-90 -10 -180 -23 -199 -29
-38 -12 -378 -27 -404 -17 -14 6 -13 11 6 48 28 54 42 278 34 546 -6 175 -16
243 -36 243 -4 0 -15 17 -24 39 -10 21 -33 53 -52 70 -19 18 -34 37 -34 42 0
6 -21 19 -47 31 -27 11 -56 29 -65 39 -35 36 -165 36 -209 0 -19 -15 -21 -24
-15 -62 6 -41 10 -45 46 -57 22 -6 45 -12 52 -12 16 0 88 -75 88 -92 0 -14 18
-63 43 -120 12 -26 17 -65 17 -134 0 -52 -3 -94 -7 -92 -109 53 -128 58 -203
58 -45 0 -96 -7 -121 -16 -27 -9 -104 -18 -195 -23 -144 -8 -161 -12 -229 -48
-11 -6 -54 -16 -95 -22 -43 -7 -86 -20 -102 -31 -15 -11 -34 -20 -42 -20 -25
0 -70 -24 -89 -47 -9 -12 -32 -25 -50 -28 -17 -4 -45 -17 -62 -29 -16 -11 -39
-25 -51 -31 -44 -20 -95 -76 -119 -130 l-24 -56 31 -44 c34 -48 70 -65 140
-65 49 0 136 19 173 38 16 8 59 21 95 28 37 8 71 21 80 32 15 18 107 42 161
42 16 0 34 8 41 19 8 10 27 20 43 21 46 3 54 -2 15 -9 -29 -5 -36 -11 -38 -33
-2 -17 -11 -29 -25 -34 -28 -8 -137 -90 -155 -115 -7 -10 -20 -19 -28 -19 -20
0 -124 -104 -124 -123 0 -9 7 -23 17 -32 24 -25 129 -11 163 20 14 13 48 29
75 35 28 6 67 22 87 35 21 14 47 25 58 25 28 0 76 26 83 44 3 8 24 20 46 26
22 6 53 21 68 34 15 13 41 26 56 30 15 4 33 17 39 31 6 14 23 27 40 30 15 4
52 27 80 51 29 24 55 44 59 44 4 0 9 9 12 20 3 11 12 20 21 20 27 0 20 -68
-14 -125 -16 -27 -30 -58 -30 -67 0 -10 -13 -31 -29 -47 -16 -16 -34 -45 -41
-65 -6 -19 -22 -42 -36 -50 -13 -9 -24 -25 -24 -35 0 -10 -11 -23 -25 -29 -13
-6 -31 -25 -40 -42 -8 -16 -20 -30 -25 -30 -5 0 -22 -13 -37 -30 -14 -16 -31
-30 -37 -30 -7 0 -20 -13 -29 -30 -10 -16 -24 -30 -31 -30 -7 0 -35 -16 -62
-35 -27 -19 -56 -35 -66 -35 -9 0 -25 -11 -36 -24 -10 -13 -38 -30 -63 -36
-24 -7 -60 -22 -79 -33 -19 -12 -57 -28 -84 -35 -26 -7 -61 -23 -76 -36 -21
-18 -46 -25 -102 -30 -40 -4 -93 -16 -117 -27 -23 -10 -86 -26 -138 -34 -91
-15 -131 -28 -144 -47 -3 -5 -109 -16 -235 -23 -126 -8 -263 -19 -304 -25 -41
-6 -114 -13 -162 -17 -102 -7 -95 -16 -76 112 6 46 18 88 28 100 28 32 38 58
46 115 4 30 15 68 25 85 9 16 22 64 29 105 8 54 20 87 41 117 16 23 29 49 29
58 0 10 13 41 29 69 16 28 31 63 35 79 3 15 11 27 16 27 5 0 21 21 36 46 15
26 38 57 51 70 12 13 23 30 23 38 0 9 14 22 30 31 17 9 30 20 30 25 0 12 96
110 108 110 5 0 14 10 21 23 7 12 22 27 34 32 12 6 26 20 32 33 5 12 17 22 26
22 10 0 36 15 58 34 23 19 51 38 63 42 12 4 30 17 40 30 10 12 31 25 48 29 16
3 46 20 66 36 20 16 44 29 53 29 9 0 33 11 53 25 21 14 62 31 93 38 30 7 64
21 76 31 26 21 72 36 115 36 17 0 64 12 105 26 68 23 92 26 289 31 229 6 239
9 240 58 0 21 -45 55 -74 55 -8 0 -19 6 -23 14 -4 7 -19 19 -32 26 -39 20
-293 31 -503 20 -194 -9 -256 -19 -281 -44 -7 -8 -47 -19 -87 -25 -41 -7 -88
-20 -104 -30 -17 -10 -62 -26 -99 -36 -39 -10 -71 -24 -77 -34 -5 -10 -28 -23
-52 -30 -24 -7 -56 -23 -73 -35 -16 -13 -46 -28 -65 -35 -19 -6 -44 -21 -57
-32 -25 -24 -53 -19 -53 8 0 10 -11 30 -24 44 -13 14 -29 43 -36 65 -7 21 -23
52 -36 67 -13 15 -26 44 -29 65 -9 59 -26 153 -37 208 -11 55 -6 170 11 249 7
28 16 81 21 119 8 52 16 73 33 86 13 10 29 38 36 61 7 23 24 51 37 62 13 10
24 26 24 36 0 9 14 27 30 39 23 17 30 31 30 55 0 52 -24 77 -74 77 -26 0 -48
-6 -56 -14 -6 -8 -28 -20 -47 -27 -42 -13 -113 -77 -113 -100 0 -9 -11 -21
-25 -27 -14 -7 -30 -24 -35 -38 -6 -14 -19 -33 -30 -43 -12 -10 -25 -42 -34
-86 -8 -38 -21 -74 -28 -80 -19 -14 -35 -61 -43 -123 -3 -30 -14 -73 -23 -95
-25 -60 -24 -318 1 -364 9 -17 20 -57 23 -89 5 -40 15 -66 33 -88 15 -17 32
-52 39 -78 6 -26 22 -58 34 -71 28 -30 80 -95 91 -113 15 -25 -3 -81 -29 -93
-13 -6 -29 -22 -34 -35 -5 -14 -18 -30 -29 -36 -11 -5 -26 -29 -32 -53 -7 -23
-23 -53 -35 -67 -13 -14 -29 -41 -35 -60 -7 -19 -23 -50 -36 -68 -13 -20 -23
-50 -23 -69 0 -37 -12 -66 -40 -98 -10 -11 -23 -49 -29 -86 -6 -36 -19 -83
-29 -105 -11 -21 -24 -79 -31 -127 -9 -69 -17 -94 -35 -112 -14 -14 -28 -47
-36 -84 -7 -33 -18 -66 -26 -72 -7 -5 -20 -36 -30 -67 -9 -31 -25 -64 -35 -72
-23 -19 -62 -73 -90 -125 -12 -22 -32 -53 -45 -68 -33 -39 -31 -79 6 -121 51
-57 69 -59 409 -52 311 6 397 13 461 39 19 8 76 19 126 25 82 9 107 17 164 51
8 5 71 14 139 20 83 8 136 17 160 30 20 10 66 23 103 29 47 7 77 18 98 35 22
19 47 27 95 32 43 5 77 15 100 31 19 13 50 26 70 30 20 3 48 19 63 35 17 19
37 29 55 29 33 0 82 24 90 43 3 8 18 17 34 20 16 3 41 17 56 31 15 14 43 33
62 42 19 9 35 23 35 30 0 8 11 19 24 24 14 5 32 20 41 33 8 13 26 29 39 35 13
6 27 19 30 30 4 10 18 25 31 32 14 7 25 20 25 27 0 8 12 25 28 39 15 14 34 45
43 67 10 25 28 49 45 59 28 16 31 16 74 -7 25 -13 55 -28 68 -34 82 -39 622
-32 762 9 36 10 94 24 130 30 101 17 108 19 132 44 13 13 35 26 50 30 14 3 40
17 56 31 36 30 71 32 105 5 14 -11 45 -27 69 -36 23 -8 54 -25 68 -38 14 -12
36 -28 50 -34 14 -7 52 -32 85 -57 33 -24 76 -52 95 -62 19 -10 40 -25 47 -34
6 -8 31 -24 55 -34 24 -11 55 -29 70 -41 15 -12 42 -26 60 -29 18 -4 45 -18
60 -30 15 -13 42 -26 60 -30 18 -4 49 -18 70 -32 24 -16 61 -28 108 -34 45 -7
84 -18 101 -31 17 -13 60 -26 114 -34 47 -8 96 -21 108 -28 50 -33 428 -48
625 -25 53 6 115 20 138 30 22 10 68 22 103 25 44 5 71 14 90 30 15 12 45 25
66 29 66 11 102 25 120 45 10 11 26 20 36 20 9 0 30 14 46 30 15 17 33 30 38
30 15 0 85 70 85 84 0 7 11 27 25 46 14 19 25 46 25 60 0 29 -51 107 -76 117
-9 3 -27 17 -40 29 -12 13 -29 24 -37 24 -8 0 -28 13 -45 29 -17 17 -49 35
-71 42 -23 7 -43 20 -46 30 -3 10 -15 21 -25 24 -11 3 -27 16 -37 28 -10 13
-35 33 -55 46 -21 12 -47 34 -59 49 -11 15 -62 70 -112 123 -51 53 -105 113
-122 134 -44 55 -64 75 -75 75 -6 0 -17 15 -25 33 -14 33 -59 86 -197 230
l-78 81 28 29 c15 16 41 36 59 43 17 7 41 27 53 44 12 16 26 30 31 30 19 0 96
85 103 113 4 16 18 40 31 53 29 29 45 57 45 79 0 9 9 28 20 43 28 39 40 139
40 352 0 215 -13 342 -39 379 -10 14 -22 40 -25 58 -4 18 -20 48 -36 68 -16
20 -32 50 -36 68 -3 18 -18 46 -31 62 -54 65 -166 175 -179 175 -7 0 -27 13
-44 30 -16 16 -46 32 -65 36 -19 3 -35 9 -35 13 0 11 -57 41 -78 41 -10 0 -31
-9 -46 -21z m-678 -1534 c192 -20 220 -24 235 -40 20 -19 74 -45 95 -45 10 0
37 -13 59 -29 22 -16 49 -32 61 -36 13 -3 30 -17 38 -31 9 -13 22 -24 30 -24
12 0 189 -171 264 -257 74 -84 100 -116 100 -125 0 -4 9 -8 19 -8 13 0 21 -9
26 -28 6 -31 68 -118 116 -166 16 -15 29 -35 29 -42 0 -8 4 -14 10 -14 5 0 21
-18 35 -40 14 -22 32 -40 40 -40 8 0 21 -13 29 -29 17 -32 212 -231 227 -231
5 0 26 -17 48 -39 l38 -38 -31 -17 c-17 -9 -46 -28 -65 -41 -19 -14 -43 -25
-53 -25 -11 0 -43 -11 -71 -25 -52 -25 -263 -65 -341 -65 -22 0 -96 7 -165 15
-70 8 -171 19 -225 25 -55 6 -104 14 -110 18 -17 12 -76 30 -126 37 -28 5 -57
18 -78 36 -18 16 -43 29 -55 29 -13 0 -41 10 -62 21 -22 12 -58 30 -80 42 -22
11 -45 28 -52 37 -7 9 -34 23 -60 30 -26 8 -52 19 -56 27 -4 7 -22 20 -40 29
-18 9 -44 27 -59 40 -15 12 -44 28 -65 35 -20 6 -55 25 -77 40 -21 16 -46 29
-54 29 -8 0 -27 11 -42 23 -16 14 -54 29 -90 36 -58 12 -61 13 -46 30 9 10 16
24 16 32 0 41 53 41 131 -1 21 -12 76 -24 135 -31 67 -8 105 -17 119 -29 42
-37 135 -27 135 14 0 23 -71 104 -96 110 -14 4 -30 18 -36 31 -6 14 -15 25
-21 25 -5 0 -21 12 -35 28 -15 15 -40 35 -55 45 -23 15 -26 21 -16 33 10 12
44 13 208 8 268 -9 312 5 269 87 -25 50 -42 65 -79 73 -15 3 -43 16 -63 30
-21 14 -58 28 -84 32 -26 3 -56 15 -67 25 -29 25 -70 39 -119 39 -24 0 -72 9
-106 20 -34 11 -76 20 -93 20 -16 0 -47 5 -68 11 -40 12 -42 17 -55 102 -4 28
-16 60 -30 77 -26 30 -31 55 -14 65 41 26 417 31 628 10z"/>
<path d="M11944 10144 c-16 -3 -42 -16 -58 -29 -15 -13 -44 -26 -65 -30 -24
-4 -50 -18 -67 -36 -15 -16 -32 -29 -37 -29 -8 0 -52 -44 -148 -147 -16 -18
-32 -46 -35 -63 -4 -16 -17 -36 -29 -44 -13 -9 -26 -29 -30 -45 -3 -17 -20
-47 -36 -67 -16 -20 -29 -46 -29 -58 0 -12 -13 -40 -29 -62 -16 -22 -31 -59
-35 -86 -4 -26 -16 -56 -29 -70 -15 -16 -27 -49 -35 -92 -7 -39 -21 -77 -32
-89 -11 -11 -22 -37 -25 -56 -16 -105 -26 -143 -40 -157 -18 -19 -22 -33 -35
-157 -7 -62 -19 -110 -31 -131 -14 -25 -21 -68 -30 -187 -9 -109 -17 -164 -30
-190 -22 -44 -39 -267 -39 -509 0 -93 -3 -171 -8 -174 -4 -2 -23 -1 -42 3
l-35 7 1 139 c0 129 2 143 24 179 21 35 24 52 25 147 0 98 -2 110 -22 131 -13
13 -28 39 -34 57 -8 21 -23 38 -43 47 -17 8 -44 24 -59 37 -25 19 -40 22 -122
22 -80 0 -97 -3 -123 -22 -17 -12 -43 -25 -58 -28 -46 -10 -84 -27 -84 -37 0
-5 -22 -19 -49 -31 -28 -12 -54 -32 -60 -44 -6 -13 -15 -23 -21 -23 -5 0 -37
-28 -70 -62 -91 -96 -95 -101 -116 -137 -10 -19 -29 -44 -41 -57 -13 -13 -23
-29 -23 -37 0 -8 -13 -28 -30 -45 -16 -17 -32 -44 -36 -59 -10 -48 -14 -54
-25 -47 -15 9 -4 138 16 173 31 57 37 80 46 186 5 60 11 121 14 135 7 33 -33
111 -65 127 -52 26 -224 10 -236 -22 -3 -7 -25 -18 -50 -24 -24 -6 -51 -19
-59 -29 -68 -83 -85 -115 -94 -172 -6 -33 -19 -74 -31 -90 -16 -22 -23 -55
-31 -142 -7 -73 -17 -125 -29 -148 -22 -43 -40 -213 -40 -388 0 -122 0 -123
-25 -132 -14 -5 -30 -21 -35 -35 -6 -17 -17 -25 -32 -25 -13 0 -41 -15 -63
-32 l-39 -33 -124 0 c-119 0 -125 1 -141 23 -9 13 -29 40 -46 59 l-30 36 -3
176 c-3 181 4 253 33 331 11 30 20 97 26 199 8 154 15 207 29 226 15 20 30
113 40 240 7 99 14 140 30 172 17 32 24 72 31 175 9 140 16 186 29 203 31 39
57 430 41 599 -9 90 -12 101 -40 130 -17 18 -31 37 -31 43 0 6 -15 16 -32 22
-18 7 -51 22 -73 34 -52 27 -137 27 -191 -1 -22 -11 -55 -27 -76 -35 -28 -12
-39 -25 -48 -54 -7 -21 -18 -42 -24 -48 -26 -20 -34 -53 -40 -160 -4 -60 -14
-122 -21 -138 -21 -43 -34 -120 -44 -266 -6 -74 -14 -137 -18 -140 -20 -14
-33 -69 -44 -179 -9 -83 -18 -124 -31 -142 -11 -15 -24 -65 -33 -130 -9 -57
-19 -107 -23 -110 -22 -16 -32 -44 -43 -109 -6 -45 -20 -86 -34 -108 -13 -19
-27 -55 -30 -81 -3 -26 -10 -54 -16 -62 -5 -8 -18 -28 -29 -45 -11 -16 -20
-43 -20 -58 0 -31 -13 -61 -41 -91 -11 -11 -19 -28 -19 -37 0 -26 -22 -72 -41
-86 -9 -7 -19 -26 -22 -42 -4 -16 -19 -44 -35 -63 -16 -18 -32 -45 -35 -59 -4
-15 -18 -34 -32 -43 -14 -9 -25 -22 -25 -29 0 -7 -15 -29 -32 -48 -18 -20 -40
-44 -49 -55 -31 -38 -131 -124 -143 -124 -7 0 -25 -13 -39 -30 -15 -16 -37
-30 -50 -30 -12 0 -49 -14 -82 -30 -81 -41 -170 -43 -211 -5 -15 14 -38 28
-50 31 -13 3 -25 16 -28 30 -4 14 -17 35 -29 47 -20 20 -22 32 -22 132 0 84 4
117 16 135 20 32 29 73 39 190 6 71 14 107 32 141 19 36 26 67 31 143 5 75 12
106 28 133 16 26 26 67 35 151 8 66 20 122 28 131 21 25 34 78 40 176 4 49 12
98 20 110 29 45 37 99 46 315 13 294 2 456 -34 509 -14 20 -30 51 -37 68 -6
18 -19 35 -30 38 -11 4 -26 20 -34 36 -9 16 -22 29 -30 29 -8 0 -24 11 -37 24
-26 28 -67 46 -105 46 -14 0 -41 10 -60 21 -50 31 -213 31 -272 0 -23 -11 -60
-21 -82 -21 -56 0 -127 -19 -142 -39 -7 -9 -34 -22 -61 -29 -29 -8 -56 -23
-68 -37 -11 -14 -26 -25 -34 -25 -8 0 -26 -11 -40 -25 -14 -14 -37 -31 -52
-39 -33 -17 -212 -204 -212 -222 0 -7 -13 -22 -30 -34 -16 -12 -33 -32 -36
-46 -3 -13 -10 -24 -15 -24 -15 0 -49 -63 -49 -89 0 -13 -12 -37 -26 -54 -24
-28 -26 -37 -22 -105 3 -60 7 -76 25 -90 11 -9 24 -28 28 -40 19 -63 201 -69
225 -8 4 12 20 30 34 39 14 10 26 23 26 29 0 24 256 278 280 278 7 0 25 14 41
31 25 27 39 32 108 41 101 13 122 8 156 -42 27 -39 27 -43 23 -144 -3 -58 -9
-111 -15 -118 -16 -19 -32 -101 -43 -215 -7 -70 -16 -112 -30 -136 -14 -24
-23 -67 -31 -148 -8 -81 -17 -121 -29 -136 -20 -26 -26 -53 -39 -179 -6 -59
-16 -102 -30 -125 -14 -24 -23 -68 -32 -149 -8 -78 -17 -123 -29 -140 -21 -30
-40 -142 -40 -238 0 -39 -7 -105 -16 -148 -15 -71 -15 -84 0 -158 9 -45 16
-98 16 -119 0 -56 20 -126 40 -140 9 -7 21 -27 25 -45 6 -29 28 -59 90 -122
50 -51 87 -80 102 -80 9 0 29 -12 44 -26 22 -21 43 -28 106 -36 43 -5 108 -16
144 -24 84 -18 132 -18 167 0 15 7 64 16 109 20 93 7 124 16 155 46 12 11 32
20 43 20 12 0 37 11 56 25 19 13 51 33 71 45 21 11 42 29 48 40 6 11 17 20 25
20 7 0 23 13 35 29 11 17 29 33 39 36 11 3 24 19 29 34 6 16 19 32 30 35 11 4
25 20 32 36 7 17 17 30 22 30 14 0 34 23 42 48 4 12 18 35 32 51 13 16 31 45
39 65 9 20 20 36 25 36 14 0 40 55 40 83 0 13 11 33 25 45 13 12 27 32 29 44
17 85 21 64 27 -162 3 -135 11 -256 16 -270 6 -14 20 -36 32 -49 12 -13 21
-30 21 -38 0 -12 28 -46 82 -101 58 -58 90 -82 106 -82 10 0 27 -9 36 -19 26
-29 62 -40 161 -50 50 -5 114 -15 143 -22 42 -9 64 -9 100 0 26 7 88 18 139
25 73 11 98 19 123 40 17 14 43 26 56 26 14 0 37 12 52 27 15 16 41 33 59 39
30 11 32 10 46 -27 9 -22 21 -39 29 -39 7 0 21 -14 30 -30 13 -23 26 -31 58
-36 22 -4 43 -11 46 -15 7 -12 81 -11 89 1 3 6 23 10 43 10 53 0 100 32 123
85 11 25 24 45 28 45 13 0 29 49 36 112 3 31 14 67 24 80 26 33 32 55 41 132
5 41 14 74 22 80 23 17 35 47 43 104 5 35 15 60 30 75 12 12 28 46 35 75 7 30
19 56 27 59 15 6 43 66 43 94 0 10 9 20 20 24 10 3 25 21 31 40 7 18 23 39 36
46 13 7 23 18 23 24 0 18 20 31 57 38 29 6 34 3 39 -18 3 -14 -4 -64 -16 -111
l-22 -86 21 -61 c11 -34 23 -79 26 -100 4 -23 18 -51 35 -69 16 -17 32 -38 35
-48 3 -10 20 -23 37 -29 18 -6 41 -20 53 -30 11 -10 35 -23 54 -30 49 -16 317
-14 373 3 l46 13 11 -37 c6 -21 11 -43 11 -51 0 -7 9 -23 21 -35 11 -12 26
-45 34 -73 8 -30 25 -63 39 -76 14 -13 26 -31 26 -39 0 -8 11 -23 23 -33 13
-10 29 -28 36 -41 6 -12 22 -24 35 -28 13 -3 28 -16 34 -29 6 -14 24 -27 39
-31 15 -4 39 -17 53 -30 27 -24 102 -44 169 -44 21 0 43 -6 49 -12 8 -8 41
-13 87 -13 46 0 79 5 87 13 6 6 30 12 52 12 61 1 128 19 151 40 12 11 39 26
60 33 22 8 44 23 50 35 5 12 16 22 23 22 7 0 29 16 49 35 20 19 40 35 44 35 5
0 15 13 24 29 8 16 23 32 34 36 10 3 22 16 25 29 3 12 19 36 35 54 16 17 33
47 37 67 3 20 17 47 30 60 12 12 25 40 29 61 3 22 8 49 11 62 6 32 61 63 104
60 l35 -3 6 -135 c6 -141 11 -162 39 -195 10 -11 21 -37 24 -58 4 -20 17 -47
30 -60 12 -12 30 -34 39 -49 10 -16 23 -28 30 -28 6 0 20 -14 29 -30 10 -18
25 -30 37 -30 11 0 28 -11 36 -24 16 -25 78 -46 133 -46 16 0 46 -7 65 -15 46
-19 98 -19 123 0 10 8 35 15 54 15 56 0 112 20 148 51 18 16 39 29 47 29 7 0
23 13 35 29 11 17 29 32 39 36 10 3 24 18 30 33 8 18 24 31 46 38 38 12 45 9
45 -18 0 -16 31 -56 84 -107 9 -9 30 -29 46 -44 32 -31 76 -47 127 -47 18 0
33 -4 33 -10 0 -5 24 -10 54 -10 30 0 58 5 61 10 3 6 23 10 43 10 54 0 113 19
142 44 14 13 40 29 58 36 17 7 32 15 32 19 0 3 4 12 8 19 6 9 19 2 48 -25 23
-21 43 -46 47 -55 3 -9 25 -22 49 -29 24 -6 61 -18 83 -25 33 -10 44 -10 62 2
12 8 36 14 53 14 43 0 87 25 105 60 9 17 20 30 25 30 16 0 37 52 43 110 4 30
13 60 20 65 19 15 35 62 42 130 3 38 14 73 29 95 13 19 28 63 34 97 6 36 19
70 30 81 11 11 25 43 32 73 8 32 22 61 35 71 13 10 26 34 29 53 4 20 16 45 26
55 23 23 50 74 50 94 0 8 9 17 19 21 10 3 24 18 31 34 7 19 25 34 51 44 l39
15 0 -68 c0 -50 -5 -78 -19 -102 -22 -38 -41 -148 -41 -238 0 -42 -7 -78 -22
-113 -20 -44 -23 -70 -23 -172 0 -107 2 -124 23 -156 12 -20 22 -48 22 -63 0
-35 27 -86 45 -86 7 0 15 -10 17 -22 2 -12 14 -28 28 -35 13 -6 31 -21 40 -31
19 -24 71 -42 121 -42 21 0 40 -4 44 -9 11 -19 94 -24 143 -8 26 8 81 18 122
22 79 7 107 17 127 45 7 10 30 20 51 23 25 5 48 17 65 37 15 16 34 30 41 30 8
0 23 11 33 23 10 13 28 29 40 35 29 16 163 152 163 166 0 6 14 19 30 28 19 11
30 25 30 38 0 13 8 24 19 27 34 9 45 58 46 203 0 154 -9 180 -72 207 -62 26
-99 11 -176 -70 -104 -109 -114 -120 -126 -144 -6 -12 -20 -24 -30 -28 -11 -3
-23 -15 -26 -26 -4 -10 -19 -26 -35 -34 -16 -8 -31 -23 -34 -33 -4 -10 -28
-28 -55 -40 -27 -12 -54 -29 -59 -37 -6 -12 -20 -15 -48 -13 l-39 3 -12 58
c-17 87 1 339 27 376 20 28 40 138 40 223 0 34 7 64 19 83 27 45 41 144 41
286 0 106 -3 129 -20 157 -11 17 -24 32 -30 32 -5 0 -10 8 -10 18 0 23 -19 42
-42 42 -9 0 -26 9 -36 20 -10 11 -34 25 -53 30 -72 21 -199 6 -217 -25 -4 -8
-32 -19 -62 -25 -39 -7 -61 -17 -75 -35 -12 -14 -28 -25 -38 -25 -9 0 -33 -16
-54 -36 -114 -108 -174 -171 -179 -191 -3 -11 -14 -23 -24 -26 -10 -3 -26 -21
-34 -41 -8 -20 -20 -36 -26 -36 -6 0 -23 -25 -37 -56 -14 -30 -31 -58 -38 -60
-7 -3 -18 -25 -25 -49 -17 -62 -34 -46 -27 25 3 37 13 69 26 87 16 21 24 54
31 123 7 59 19 112 32 139 12 25 23 65 25 90 4 44 1 49 -47 100 l-50 54 -99
-5 c-89 -4 -103 -8 -131 -31 -17 -15 -39 -27 -49 -27 -21 0 -101 -75 -101 -94
0 -7 -13 -29 -29 -49 -22 -28 -30 -51 -35 -103 -4 -42 -16 -82 -30 -108 -19
-33 -26 -66 -34 -161 -6 -66 -20 -150 -31 -185 -15 -49 -23 -112 -29 -255 -7
-145 -13 -190 -23 -194 -8 -2 -28 -19 -45 -38 -17 -18 -36 -33 -43 -33 -15 0
-64 -31 -74 -47 -12 -19 -49 -15 -77 9 -25 20 -25 21 -23 178 2 135 5 162 22
191 20 36 41 165 41 257 0 35 7 67 19 91 29 53 41 128 41 257 l0 115 -47 47
-48 46 -115 6 c-128 6 -145 13 -178 72 -30 50 -52 58 -171 58 -98 0 -152 -11
-182 -36 -8 -8 -31 -16 -50 -20 -69 -11 -78 -14 -106 -38 -15 -13 -45 -29 -65
-35 -20 -7 -40 -21 -43 -31 -3 -10 -18 -23 -33 -28 -37 -13 -219 -192 -227
-223 -3 -14 -16 -29 -28 -34 -11 -6 -25 -24 -29 -42 -5 -18 -17 -37 -28 -43
-11 -6 -26 -31 -33 -58 l-14 -47 -54 -7 c-30 -3 -75 -9 -101 -12 l-47 -7 -6
38 c-9 52 -35 123 -45 123 -5 0 -12 17 -15 38 -7 43 -41 122 -53 122 -4 0 -14
16 -21 35 -7 20 -23 42 -36 51 -12 8 -25 24 -28 34 -3 11 -16 24 -30 29 -14 6
-28 20 -32 31 -4 12 -21 28 -38 35 -18 8 -40 23 -49 34 -17 20 -29 24 -99 36
-69 11 -91 61 -49 109 17 19 35 48 41 64 6 17 21 38 35 47 13 8 24 23 24 33 0
9 13 33 30 52 16 19 32 47 36 63 3 15 18 41 33 56 17 17 31 45 34 68 4 22 17
52 30 67 15 18 29 53 37 96 7 38 19 71 26 74 17 7 31 64 39 161 4 46 15 99 27
125 18 38 21 67 22 195 1 136 -1 154 -21 190 -12 22 -26 67 -32 100 -7 36 -20
69 -34 85 -13 14 -28 37 -35 52 -6 14 -19 29 -30 32 -10 4 -24 18 -30 31 -6
14 -18 25 -25 25 -7 0 -35 14 -61 31 -42 28 -56 32 -134 34 -48 2 -101 1 -118
-1z m46 -448 c0 -7 14 -41 31 -76 30 -59 31 -67 26 -141 -4 -44 -12 -89 -18
-101 -19 -35 -38 -129 -39 -188 0 -43 -6 -64 -29 -97 -18 -27 -31 -62 -35 -97
-4 -30 -14 -60 -22 -67 -22 -18 -44 -64 -44 -92 0 -13 -13 -41 -30 -62 -16
-21 -30 -50 -30 -64 0 -15 -13 -45 -29 -67 -16 -21 -32 -54 -36 -72 -4 -18
-17 -45 -30 -60 -13 -16 -29 -50 -36 -75 -6 -27 -17 -47 -25 -47 -15 0 -44
-61 -44 -91 0 -11 -4 -19 -10 -19 -16 0 -12 107 6 148 24 57 35 125 43 272 7
111 12 143 30 177 20 37 39 155 41 255 0 9 6 23 13 30 20 21 35 67 46 151 7
51 18 85 30 98 10 11 24 48 31 82 7 36 22 73 36 90 13 16 24 35 24 43 0 18 81
95 92 88 4 -3 8 -11 8 -18z m1627 -1714 c10 -6 10 -17 2 -43 -5 -18 -14 -83
-18 -144 -6 -84 -14 -120 -31 -154 -17 -32 -25 -70 -31 -142 -9 -111 -14 -133
-40 -169 -11 -14 -22 -47 -25 -75 -4 -33 -15 -59 -31 -76 -13 -14 -32 -41 -42
-60 -24 -44 -53 -59 -123 -59 -61 0 -88 7 -88 22 0 6 -6 24 -14 41 -32 75 -36
90 -36 126 0 21 9 74 20 117 11 44 23 110 26 148 5 44 13 74 24 85 23 22 36
49 44 91 4 23 14 39 28 45 13 6 24 19 26 29 5 24 146 166 166 166 8 0 23 11
33 24 25 31 82 46 110 28z m-1809 -44 c7 -7 12 -29 12 -50 0 -21 7 -55 15 -74
8 -20 18 -66 21 -102 7 -70 27 -132 42 -132 5 0 19 -22 31 -50 12 -27 29 -50
37 -50 8 0 19 -11 24 -25 5 -14 21 -30 35 -37 23 -10 25 -17 25 -70 0 -45 -5
-63 -21 -79 -11 -11 -29 -40 -39 -64 -13 -30 -35 -56 -69 -80 -27 -20 -51 -41
-54 -48 -2 -7 -31 -11 -80 -12 l-77 0 -66 69 c-65 70 -65 70 -74 145 -5 42
-12 95 -16 119 -6 38 6 215 22 320 3 18 18 47 33 65 15 17 31 44 34 58 4 15
16 29 28 32 11 3 23 15 26 26 3 12 21 25 47 34 54 19 50 19 64 5z"/>
<path d="M22736 10141 c-22 -5 -44 -15 -50 -22 -6 -8 -37 -22 -68 -32 -32 -10
-58 -22 -58 -27 0 -6 -18 -21 -40 -35 -22 -14 -40 -31 -40 -39 0 -8 -11 -17
-24 -20 -13 -3 -29 -18 -36 -36 -7 -16 -20 -32 -30 -35 -11 -3 -24 -21 -30
-40 -6 -19 -16 -35 -21 -35 -12 0 -49 -61 -49 -82 0 -9 -13 -30 -30 -46 -20
-21 -30 -40 -30 -61 0 -17 -9 -40 -19 -50 -27 -27 -38 -50 -46 -98 -3 -22 -15
-49 -25 -58 -21 -19 -34 -55 -45 -120 -4 -22 -16 -50 -27 -62 -14 -15 -23 -44
-29 -100 -6 -48 -17 -88 -29 -104 -23 -33 -27 -50 -39 -160 -6 -55 -17 -98
-30 -121 -17 -27 -23 -64 -32 -174 -7 -101 -15 -149 -29 -174 -22 -41 -39
-212 -40 -390 -1 -63 -5 -135 -11 -160 -22 -97 -28 -162 -34 -350 -3 -107 -8
-211 -11 -229 -7 -41 -97 -136 -155 -164 -20 -9 -39 -24 -43 -32 -3 -9 -18
-15 -40 -15 -30 0 -36 4 -44 33 -18 60 -19 72 -11 235 7 136 13 171 33 220 17
42 26 92 34 187 8 91 17 141 31 167 21 43 36 169 26 227 -5 28 -20 53 -53 87
l-47 48 -130 7 c-71 4 -133 8 -137 8 -5 1 -8 10 -8 20 0 27 -43 76 -80 91 -20
8 -65 11 -137 8 -94 -4 -115 -8 -157 -31 -27 -15 -59 -27 -71 -27 -35 0 -85
-21 -95 -40 -5 -9 -23 -20 -40 -23 -16 -4 -38 -16 -47 -28 -10 -11 -35 -29
-55 -40 -36 -18 -165 -143 -221 -212 -15 -19 -34 -51 -42 -70 -8 -20 -22 -40
-30 -45 -9 -4 -23 -28 -31 -52 -8 -24 -24 -51 -35 -61 -11 -10 -25 -42 -32
-75 -7 -33 -19 -66 -28 -75 -22 -22 -39 -103 -39 -182 -1 -54 -13 -128 -38
-217 -4 -14 -27 -44 -51 -65 l-44 -40 -127 0 -127 0 -31 33 c-16 17 -35 32
-41 32 -6 0 -16 11 -22 24 -6 13 -22 29 -35 35 -14 6 -24 19 -24 31 0 11 -11
30 -25 42 -14 12 -30 39 -36 60 -5 22 -21 48 -34 60 -14 12 -26 37 -30 61 -4
22 -18 51 -31 64 -13 13 -28 42 -35 66 -6 23 -24 54 -40 69 -16 15 -29 33 -29
41 0 20 -142 167 -162 167 -10 0 -22 9 -28 20 -6 12 -23 26 -38 31 -33 13 -19
23 47 34 24 4 51 15 61 25 10 10 41 25 69 35 28 9 56 25 61 35 5 10 23 21 39
25 34 7 70 37 189 157 123 124 149 156 156 193 4 19 17 40 30 48 17 12 25 29
31 64 3 26 19 66 33 87 l27 39 0 243 c0 239 0 243 -24 274 -13 18 -30 56 -37
84 -9 33 -23 57 -39 69 -14 10 -25 27 -25 38 0 10 -11 26 -25 35 -13 9 -27 24
-30 35 -4 11 -19 26 -35 34 -16 8 -31 24 -35 35 -3 11 -13 20 -21 20 -8 0 -27
13 -42 28 -15 15 -45 34 -67 41 -21 8 -46 22 -55 33 -9 11 -40 24 -77 31 -34
7 -70 20 -81 30 -22 20 -110 37 -197 37 -33 0 -78 5 -100 10 -102 25 -184 30
-263 14 -42 -8 -137 -19 -209 -24 -164 -11 -196 -17 -220 -40 -11 -10 -44 -21
-74 -25 -54 -7 -119 -31 -119 -44 0 -4 -22 -13 -49 -20 -28 -7 -60 -23 -73
-35 -13 -12 -42 -28 -66 -35 -24 -7 -49 -22 -58 -36 -9 -14 -23 -25 -31 -25
-8 0 -27 -13 -42 -29 -14 -15 -36 -31 -47 -35 -38 -12 -274 -258 -274 -285 0
-6 -13 -23 -30 -37 -16 -15 -33 -36 -36 -48 -4 -12 -20 -36 -35 -54 -16 -18
-29 -42 -29 -54 0 -11 -13 -35 -29 -53 -16 -18 -31 -50 -34 -72 -4 -22 -17
-52 -30 -67 -13 -15 -29 -53 -36 -88 -7 -33 -21 -72 -31 -87 -13 -17 -23 -59
-31 -121 -8 -59 -19 -104 -30 -120 -29 -40 -41 -202 -41 -550 -1 -333 8 -435
42 -481 10 -15 22 -51 26 -80 7 -56 19 -87 39 -104 7 -5 18 -32 25 -58 7 -26
21 -53 30 -60 10 -7 25 -30 34 -52 10 -22 28 -51 42 -65 13 -14 49 -51 79 -82
30 -32 58 -58 63 -58 5 0 23 -13 40 -29 17 -16 47 -34 66 -40 20 -5 44 -19 54
-29 19 -22 98 -42 167 -42 24 0 46 -4 50 -9 11 -19 112 -24 162 -8 26 9 79 20
118 26 56 8 73 15 88 35 10 15 24 26 30 26 18 0 107 100 113 129 4 14 17 37
30 51 16 18 25 46 33 100 6 41 20 93 31 115 15 30 22 77 31 190 8 106 17 161
30 186 16 33 35 142 41 244 3 36 5 40 28 38 58 -6 113 -29 132 -55 11 -16 25
-28 33 -28 7 0 15 -11 19 -23 3 -13 19 -41 36 -63 17 -21 34 -51 37 -67 3 -16
14 -34 25 -40 10 -7 26 -36 34 -64 8 -29 24 -59 35 -66 10 -8 22 -29 25 -48 9
-43 23 -71 44 -86 10 -7 21 -29 25 -49 8 -43 25 -74 42 -74 6 0 14 -15 18 -32
4 -18 20 -50 36 -70 16 -20 34 -48 40 -62 7 -14 20 -28 30 -31 9 -3 20 -17 23
-31 4 -13 17 -30 30 -35 13 -6 29 -22 35 -35 5 -13 22 -26 35 -30 14 -3 28
-14 31 -24 3 -10 25 -26 48 -35 23 -9 52 -26 64 -37 15 -14 45 -23 100 -30 43
-5 100 -16 126 -25 52 -17 162 -12 181 7 6 6 28 10 50 10 84 0 159 19 183 45
13 14 32 25 43 25 29 0 69 21 75 39 3 9 23 22 46 28 40 10 42 10 80 -28 22
-22 46 -39 54 -39 8 0 25 -12 38 -26 25 -27 77 -43 138 -44 19 0 40 -5 47 -12
16 -16 112 -16 143 -1 13 6 50 15 81 18 42 5 67 14 94 36 20 16 43 29 50 29
14 0 124 104 140 132 16 29 65 9 88 -35 11 -20 25 -37 33 -37 7 0 19 -13 28
-30 9 -16 21 -30 28 -30 7 0 24 -13 38 -29 19 -22 38 -31 75 -36 27 -3 64 -13
82 -21 32 -14 65 -12 107 6 11 5 46 12 78 15 39 4 66 14 85 30 16 13 47 31 70
41 24 9 49 26 57 37 16 22 14 25 34 -50 10 -38 16 -44 54 -54 23 -6 59 -18 79
-26 34 -14 42 -14 80 0 24 8 65 18 91 22 38 5 59 16 100 52 63 56 72 69 82
111 4 18 13 36 20 38 18 7 32 49 40 119 4 34 17 77 31 100 13 22 26 66 30 98
5 40 14 65 30 82 13 14 26 38 29 53 15 69 28 106 45 121 9 9 23 37 30 63 7 25
23 56 36 67 13 11 24 30 24 40 0 11 15 36 34 56 19 20 36 46 38 58 2 12 13 26
24 32 12 6 29 17 38 24 13 11 16 9 22 -13 3 -15 4 -72 2 -129 -3 -81 -9 -109
-25 -137 -31 -50 -44 -169 -44 -389 0 -205 9 -264 46 -293 12 -10 26 -29 29
-43 3 -13 20 -32 36 -40 16 -8 34 -24 39 -34 11 -19 79 -41 128 -41 16 0 35
-6 41 -12 16 -16 131 -17 163 -2 13 7 63 17 110 22 71 9 92 16 114 36 15 14
34 26 41 26 25 0 64 23 69 42 4 10 14 18 24 18 10 0 31 12 47 28 16 15 45 39
64 53 19 15 59 50 88 79 35 34 58 50 68 46 11 -4 14 -12 9 -24 -17 -38 -17
-147 -1 -182 16 -36 58 -98 75 -113 5 -5 21 -20 35 -33 35 -32 60 -44 89 -44
13 0 37 -10 52 -22 53 -41 269 -40 322 2 14 11 39 20 55 20 34 0 76 20 99 48
14 16 35 21 110 27 68 5 107 14 141 31 26 13 62 24 80 24 49 0 106 18 120 39
7 10 28 22 47 26 18 4 47 20 64 36 16 16 34 29 38 29 5 0 26 -16 48 -35 21
-19 42 -35 46 -35 4 0 23 -13 42 -30 18 -16 42 -30 53 -30 11 0 27 -11 35 -24
12 -19 31 -27 79 -35 34 -6 79 -11 99 -11 20 0 38 -4 42 -9 10 -17 112 -24
147 -11 18 7 75 18 127 25 75 10 98 17 110 34 9 11 36 27 61 34 29 8 49 21 55
35 5 12 16 22 23 22 12 0 63 42 101 83 9 10 28 30 44 45 15 14 27 32 27 39 0
7 13 24 29 38 15 14 34 45 40 68 7 23 22 52 34 64 13 14 24 48 31 90 11 63 14
69 46 85 42 20 90 23 112 6 9 -8 18 -36 22 -69 3 -31 13 -72 21 -92 8 -20 15
-60 15 -89 0 -65 16 -126 40 -153 10 -11 23 -37 29 -57 7 -20 23 -43 36 -52
13 -8 26 -24 30 -35 3 -11 16 -23 28 -27 12 -4 33 -19 47 -34 21 -22 38 -29
86 -34 32 -4 79 -13 104 -21 45 -15 115 -11 126 6 3 5 22 9 42 9 59 1 125 19
150 43 13 12 37 26 55 32 18 5 36 20 42 32 5 12 20 24 35 27 72 16 326 288
351 377 7 24 19 52 27 61 21 25 27 137 8 168 -8 14 -23 43 -34 65 -26 56 -46
68 -104 69 -40 1 -53 -3 -68 -21 -10 -13 -23 -23 -29 -23 -7 0 -21 -16 -32
-35 -11 -19 -29 -37 -39 -40 -10 -3 -23 -19 -29 -35 -5 -17 -17 -30 -25 -30
-9 0 -22 -13 -31 -30 -8 -16 -24 -34 -36 -40 -11 -6 -24 -22 -29 -36 -5 -13
-16 -24 -25 -24 -8 0 -22 -11 -31 -25 -9 -14 -31 -32 -48 -39 -17 -8 -41 -23
-53 -35 -31 -29 -55 -26 -98 13 l-37 34 3 205 c3 168 7 208 20 223 22 26 39
92 39 150 0 71 17 164 34 183 24 28 36 116 36 267 0 145 -7 184 -35 184 -8 0
-24 9 -35 20 -31 31 -64 40 -141 40 -73 0 -124 -15 -148 -43 -7 -10 -22 -17
-32 -17 -10 0 -24 -10 -30 -22 -6 -13 -22 -34 -35 -48 -15 -17 -26 -46 -33
-88 -6 -35 -19 -78 -30 -96 -14 -22 -25 -66 -32 -136 -9 -74 -19 -115 -36
-146 -26 -46 -39 -52 -133 -57 l-45 -2 -13 65 c-7 35 -21 73 -31 85 -10 11
-23 44 -29 74 -7 29 -23 67 -37 83 -14 16 -28 40 -31 52 -3 13 -17 29 -30 37
-14 7 -27 23 -30 36 -4 13 -16 26 -29 29 -12 3 -27 17 -34 30 -6 13 -23 30
-38 37 -16 6 -36 22 -46 34 -10 12 -34 25 -55 28 -48 8 -92 25 -92 35 0 18
-111 32 -227 29 -105 -4 -125 -7 -151 -26 -16 -12 -55 -26 -86 -32 -60 -11
-96 -26 -96 -41 0 -4 -16 -14 -35 -20 -20 -7 -43 -22 -51 -36 -9 -13 -25 -26
-35 -29 -11 -4 -39 -27 -62 -52 -23 -25 -54 -58 -69 -74 -16 -17 -28 -36 -28
-44 0 -8 -9 -20 -21 -27 -21 -13 -49 -68 -49 -97 0 -9 -9 -22 -19 -28 -20 -13
-41 -69 -41 -112 0 -14 -12 -43 -27 -65 l-28 -39 -4 -244 -3 -244 -28 -14
c-16 -8 -31 -24 -35 -35 -5 -16 -15 -20 -46 -20 l-39 0 0 64 c0 85 -16 166
-39 190 -10 12 -23 36 -29 54 -7 19 -25 49 -42 68 -16 19 -30 41 -30 49 0 8
-9 19 -20 25 -11 6 -28 29 -36 51 -9 21 -29 48 -44 59 -16 11 -30 30 -32 42
-2 11 -12 26 -23 32 -26 15 -35 27 -35 51 0 12 -13 36 -30 55 -39 47 -41 111
-4 165 14 21 29 60 33 86 5 28 18 60 34 79 24 28 27 40 27 104 0 90 -9 100
-110 121 -69 14 -83 14 -180 -1 -91 -15 -109 -21 -132 -45 -15 -16 -32 -29
-38 -29 -6 0 -16 -12 -23 -27 -6 -16 -21 -36 -33 -45 -12 -10 -26 -39 -32 -70
-8 -31 -20 -58 -31 -65 -11 -7 -24 -34 -31 -65 -7 -29 -21 -63 -32 -74 -10
-12 -25 -45 -33 -74 -8 -29 -23 -62 -33 -74 -11 -11 -25 -38 -30 -58 -6 -20
-22 -52 -36 -71 -14 -19 -26 -42 -26 -51 0 -10 -16 -36 -35 -59 -19 -22 -35
-49 -35 -59 0 -10 -13 -30 -30 -45 -16 -14 -30 -32 -30 -38 0 -7 -10 -20 -21
-31 -12 -10 -35 -39 -52 -63 -16 -24 -38 -52 -49 -63 -10 -10 -18 -26 -18 -37
0 -10 -9 -21 -21 -24 -11 -3 -25 -19 -32 -36 -6 -17 -20 -34 -30 -37 -10 -3
-25 -21 -34 -40 -9 -19 -22 -34 -30 -34 -7 0 -17 -9 -23 -20 -13 -25 -41 -26
-62 -1 -8 10 -21 20 -28 23 -9 3 -12 38 -11 125 1 101 4 127 20 155 22 37 41
136 41 216 0 37 8 71 26 109 24 49 28 74 36 222 17 300 -3 389 -93 416 -13 4
-34 17 -47 28 -46 42 -199 33 -261 -14 -13 -11 -35 -19 -48 -19 -29 0 -83 -26
-83 -40 0 -6 -18 -17 -40 -26 -21 -9 -42 -25 -45 -36 -4 -10 -18 -23 -31 -28
-13 -5 -29 -21 -36 -35 -6 -14 -17 -25 -25 -25 -8 0 -22 -13 -31 -29 -9 -17
-27 -35 -39 -40 -13 -6 -23 -16 -23 -24 0 -7 -16 -29 -35 -50 -19 -20 -37 -48
-41 -61 -3 -14 -12 -27 -20 -30 -8 -3 -24 -27 -36 -53 -11 -27 -29 -56 -39
-66 -10 -10 -24 -38 -30 -62 -16 -65 -29 -45 -29 45 0 90 10 126 39 135 12 3
24 17 27 30 3 13 15 27 25 30 11 4 26 19 34 34 8 16 25 36 39 45 15 9 26 23
26 31 0 8 14 21 30 30 17 9 30 22 30 29 0 8 13 27 30 42 16 16 35 42 42 59 7
16 25 41 40 53 16 13 28 32 28 42 0 10 9 22 20 25 11 4 27 19 34 34 8 15 28
42 44 59 16 17 32 45 35 61 4 17 14 32 27 36 11 3 23 18 26 33 4 15 19 41 35
57 15 17 31 44 35 60 4 17 17 39 29 50 12 11 28 40 35 65 7 25 22 57 35 72 12
14 26 44 30 64 3 21 17 50 29 65 14 16 27 53 35 100 8 40 22 85 32 99 22 29
39 191 39 365 -1 156 -13 239 -43 283 -14 20 -28 48 -32 62 -12 39 -96 128
-140 146 -22 10 -50 26 -62 37 -17 15 -40 20 -105 23 -46 1 -101 -1 -122 -5z
m65 -463 c13 -20 18 -177 11 -310 -7 -120 -10 -140 -29 -160 -13 -14 -27 -52
-37 -97 -8 -42 -21 -78 -30 -83 -14 -8 -27 -41 -40 -99 -3 -14 -16 -38 -30
-54 -13 -15 -27 -40 -30 -55 -2 -15 -16 -40 -29 -56 -13 -16 -29 -45 -36 -66
-7 -20 -19 -39 -27 -42 -8 -3 -24 -26 -35 -51 -11 -24 -28 -49 -38 -55 -11 -5
-24 -24 -31 -42 l-13 -33 -7 35 c-11 48 4 166 28 220 13 29 24 85 30 155 8 87
15 120 36 159 16 31 26 65 26 92 0 53 19 144 30 144 11 0 27 47 40 122 7 40
19 73 31 83 10 10 24 42 30 72 7 30 20 60 29 66 9 7 25 27 34 45 16 30 20 33
49 26 18 -3 35 -11 38 -16z m-3976 -363 c30 -14 80 -30 112 -35 44 -7 62 -16
76 -35 10 -14 24 -25 29 -25 16 0 98 -82 98 -98 0 -7 11 -24 25 -38 34 -34 49
-142 40 -289 -6 -99 -9 -114 -36 -154 -16 -25 -29 -52 -29 -62 0 -28 -11 -49
-25 -49 -7 0 -23 -15 -34 -34 -26 -42 -143 -146 -165 -146 -8 0 -30 -13 -48
-28 -24 -20 -53 -32 -102 -41 -38 -7 -82 -21 -97 -32 -15 -10 -39 -19 -55 -19
l-27 0 6 136 c5 110 10 142 26 170 30 50 41 131 41 291 l0 144 -37 40 c-32 34
-50 43 -118 60 -63 16 -87 18 -115 10 -19 -6 -61 -16 -93 -22 -44 -8 -69 -20
-98 -46 -21 -19 -39 -40 -39 -45 0 -5 -9 -17 -21 -26 -14 -12 -24 -39 -32 -87
-7 -39 -20 -84 -29 -100 -18 -35 -38 -159 -38 -241 0 -30 -8 -71 -17 -92 -9
-20 -24 -73 -33 -117 l-15 -80 -76 -5 c-75 -5 -77 -6 -125 -53 l-49 -49 0
-113 0 -114 48 -45 c27 -26 57 -46 70 -46 58 0 67 -9 67 -64 0 -28 -7 -64 -16
-81 -27 -51 -34 -86 -43 -215 -7 -99 -13 -133 -30 -161 -11 -19 -24 -58 -27
-85 -4 -27 -11 -54 -16 -60 -27 -35 -140 -17 -153 25 -3 11 -16 26 -29 35 -16
10 -26 29 -31 56 -4 22 -18 54 -32 70 -20 24 -26 46 -33 117 -10 99 -24 182
-40 233 -16 55 -12 204 11 340 11 69 24 182 28 251 7 106 11 130 30 155 13 18
26 56 31 90 10 70 17 92 40 119 9 11 23 43 30 70 8 28 24 58 37 68 13 10 23
27 23 37 0 11 14 35 30 54 17 19 35 48 41 65 6 16 19 33 29 36 10 3 23 18 29
33 6 15 25 35 41 44 17 9 30 24 30 32 0 8 13 19 29 24 16 6 32 19 36 30 3 12
18 23 36 27 17 4 45 19 62 35 18 15 47 31 65 35 18 3 47 19 64 33 24 21 46 28
102 33 41 4 98 18 131 33 55 23 72 25 208 26 138 0 152 -2 202 -25z m2248
-1332 c11 -18 -11 -224 -26 -241 -19 -22 -34 -96 -42 -205 -5 -66 -12 -100
-31 -134 -13 -25 -24 -56 -24 -68 0 -54 -23 -135 -40 -140 -10 -3 -21 -18 -25
-33 -9 -38 -73 -94 -115 -101 -45 -9 -113 3 -119 20 -2 7 -15 23 -27 36 -23
23 -24 30 -24 159 0 106 3 139 15 150 16 16 33 71 44 145 5 28 19 60 34 79 15
17 27 42 27 55 0 13 8 30 18 37 10 7 28 29 41 48 34 49 110 120 148 136 17 8
38 22 45 33 18 25 90 42 101 24z m4715 -65 c7 -7 12 -30 12 -52 0 -23 7 -59
14 -82 8 -22 18 -68 22 -102 5 -47 14 -72 35 -99 16 -20 29 -42 29 -50 0 -7
15 -29 34 -48 19 -19 38 -40 43 -47 4 -7 17 -18 28 -24 17 -10 20 -21 19 -73
-1 -51 -5 -65 -22 -77 -12 -8 -27 -33 -34 -55 -7 -26 -24 -51 -47 -68 -19 -14
-46 -37 -60 -51 -23 -22 -35 -25 -101 -25 l-76 0 -65 67 c-64 66 -66 69 -75
135 -11 88 -11 265 0 373 6 68 14 93 36 125 15 22 30 50 34 63 4 12 20 29 35
37 16 8 31 23 34 34 7 27 83 41 105 19z m-1582 -555 c13 -12 24 -31 24 -42 0
-11 11 -28 24 -39 29 -22 56 -136 36 -156 -6 -6 -56 -11 -124 -11 -103 0 -117
-2 -138 -21 -38 -35 -127 -44 -100 -11 5 7 12 29 16 50 4 20 11 37 16 37 16 0
37 52 45 107 5 39 13 56 30 67 14 9 29 33 35 55 8 31 16 40 42 47 31 9 34 8
52 -26 10 -19 29 -45 42 -57z m-301 -333 c3 -5 1 -19 -5 -31 -15 -27 -35 -10
-25 20 7 22 20 27 30 11z"/>
<path d="M27135 9205 c-16 -8 -45 -14 -63 -15 -38 0 -96 -22 -108 -42 -5 -7
-22 -20 -39 -29 -18 -10 -40 -37 -55 -66 -14 -27 -33 -61 -42 -76 -26 -38 -25
-165 1 -198 10 -13 28 -45 41 -71 20 -42 64 -78 97 -78 6 0 20 -9 33 -20 34
-30 96 -43 181 -38 62 4 86 10 131 36 30 18 61 32 68 32 18 0 96 82 105 110 4
14 17 35 29 48 19 21 21 35 21 128 0 94 -2 107 -21 122 -11 9 -26 30 -32 45
-7 16 -21 31 -32 34 -11 3 -22 14 -25 24 -4 11 -21 22 -43 28 -20 5 -59 15
-87 22 -74 18 -126 20 -160 4z"/>
</g>
</svg>
